<?xml version="1.0" encoding="utf-8"?>
<svg version="1.1" xmlns:cc="http://creativecommons.org/ns#" xmlns:dc="http://purl.org/dc/elements/1.1/" xmlns:rdf="http://www.w3.org/1999/02/22-rdf-syntax-ns#" xmlns="http://www.w3.org/2000/svg" xmlns:xlink="http://www.w3.org/1999/xlink" x="0px" y="0px" viewBox="0 0 1024 768" xml:space="preserve">

 
 <g id="logo-group" transform="translate(-75.301 -47.964) scale(1.1397)">
  <path id="path188024" style="font-variant-ligatures:none" d="m499.28 427.82c5.76 3.312 12.24 4.896 19.584 4.896 6.048 0 11.52-1.152 16.416-3.456s8.928-5.76 12.096-10.368l-5.328-3.888c-2.736 3.744-6.048 6.624-10.08 8.496s-8.352 2.736-13.104 2.736c-5.904 0-11.232-1.296-15.84-3.888s-8.352-6.336-10.944-11.232c-2.592-4.752-3.888-10.224-3.888-16.56 0-6.192 1.296-11.664 3.888-16.56 2.592-4.752 6.336-8.496 10.944-11.088s9.936-4.032 15.84-4.032c4.752 0 9.072 1.008 13.104 2.88s7.344 4.608 10.08 8.352l5.328-3.888c-3.168-4.464-7.2-7.92-12.096-10.224s-10.368-3.6-16.416-3.6c-7.344 0-13.824 1.728-19.584 4.896s-10.368 7.776-13.536 13.536c-3.312 5.76-4.896 12.384-4.896 19.728s1.584 13.968 4.896 19.728c3.168 5.76 7.776 10.368 13.536 13.536z" stroke="#f6f8ff" stroke-miterlimit="2" stroke-width="4" fill="#f6f8ff"/>
  <path id="path188026" style="font-variant-ligatures:none" d="m615.73 363.59c-5.04-4.752-12.24-7.2-21.456-7.2-5.76 0-11.376 1.008-16.56 2.88-5.328 1.872-9.792 4.464-13.536 7.776l3.6 5.184c3.168-2.88 6.912-5.184 11.52-6.912s9.36-2.592 14.4-2.592c7.2 0 12.816 1.872 16.56 5.472 3.744 3.744 5.76 9.072 5.76 15.984v6.048h-25.776c-9.792 0-16.992 2.016-21.456 5.904s-6.624 8.928-6.624 15.12c0 6.48 2.304 11.664 7.2 15.552 4.896 4.032 11.52 5.904 19.872 5.904 6.336 0 11.952-1.152 16.56-3.6s8.064-5.904 10.512-10.368v13.392h6.912v-47.664c0-9.216-2.592-16.128-7.488-20.88zm-9.648 58.896c-4.32 2.88-9.648 4.32-15.84 4.32-6.624 0-11.808-1.296-15.408-4.176-3.744-2.88-5.472-6.768-5.472-11.664 0-4.608 1.584-8.352 4.896-11.088 3.312-2.592 8.64-4.032 16.128-4.032h25.632v14.112c-2.304 5.472-5.616 9.648-9.936 12.528z" stroke="#f6f8ff" stroke-miterlimit="2" stroke-width="4" fill="#f6f8ff"/>
  <path id="path188028" style="font-variant-ligatures:none" d="m653.02 325.29v106.85h7.2v-106.85z" stroke="#f6f8ff" stroke-miterlimit="2" stroke-width="4" fill="#f6f8ff"/>
  <path id="path188030" style="font-variant-ligatures:none" d="m690.71 356.97v75.168h7.2v-75.168zm-0.576-19.872c1.152 1.152 2.448 1.584 4.176 1.584 1.584 0 3.024-0.576 4.176-1.728s1.728-2.448 1.728-4.176c0-1.584-0.576-2.88-1.728-4.032s-2.592-1.728-4.176-1.728c-1.728 0-3.024 0.576-4.176 1.728s-1.728 2.592-1.728 4.176c0 1.728 0.576 3.024 1.728 4.176z" stroke="#f6f8ff" stroke-miterlimit="2" stroke-width="4" fill="#f6f8ff"/>
  <path id="path188032" style="font-variant-ligatures:none" d="m728.4 356.97v75.168h7.2v-75.168zm-0.576-19.872c1.152 1.152 2.448 1.584 4.176 1.584 1.584 0 3.024-0.576 4.176-1.728s1.728-2.448 1.728-4.176c0-1.584-0.576-2.88-1.728-4.032s-2.592-1.728-4.176-1.728c-1.728 0-3.024 0.576-4.176 1.728s-1.728 2.592-1.728 4.176c0 1.728 0.576 3.024 1.728 4.176z" stroke="#f6f8ff" stroke-miterlimit="2" stroke-width="4" fill="#f6f8ff"/>
  <path id="icon" stroke-width=".75" fill="#af1b3f" d="m319.9 331.66c-0.25562 0.004-0.5396 0.0133-0.63134 0.0213-0.0917 0.008-0.35736 0.0434-0.59047 0.0784-0.23269 0.035-0.59882 0.1105-0.81315 0.16763-0.21434 0.0571-0.54878 0.1618-0.74393 0.23227-0.19473 0.0705-0.5642 0.23101-0.82027 0.35653-0.25646 0.1251-0.64635 0.34778-0.86692 0.49415-0.2206 0.14637-0.53627 0.37696-0.70182 0.51249-0.16513 0.13552-0.44827 0.39448-0.62884 0.57504-0.18056 0.18056-0.43618 0.45953-0.56754 0.62007-0.13135 0.16055-0.35653 0.46996-0.49956 0.68805-0.14345 0.21768-0.35445 0.58297-0.46913 0.81105-0.11467 0.2281-0.27355 0.58464-0.3532 0.79231-0.0796 0.20766-0.19807 0.58463-0.26354 0.83729-0.0655 0.25312-0.1497 0.66595-0.18723 0.9174-0.043 0.28607-0.0684 0.72308-0.0684 1.1663 0 0.4366 0.0258 0.88485 0.0671 1.1676 0.0375 0.25229 0.11259 0.63676 0.16722 0.85485 0.0542 0.21767 0.15846 0.56378 0.23102 0.76852 0.0721 0.20475 0.20307 0.52793 0.29106 0.71724 0.0876 0.18974 0.26229 0.51959 0.38823 0.73267 0.12594 0.2135 0.34653 0.54544 0.4904 0.73809 0.14428 0.19265 0.43076 0.52709 0.63718 0.74268 0.20599 0.21601 0.51916 0.51249 0.69513 0.65928 0.17598 0.14678 0.49915 0.38698 0.7185 0.53334 0.21892 0.14678 0.5642 0.35195 0.76725 0.45662 0.20266 0.10467 0.56003 0.26646 0.7944 0.35987 0.23394 0.093 0.63759 0.22476 0.89655 0.29273 0.25896 0.068 0.65844 0.15179 0.88777 0.18599 0.22935 0.0342 0.61424 0.0751 0.85485 0.0901 0.24186 0.0154 0.68972 0.007 1.0008-0.0196 0.30983-0.0263 0.78855-0.093 1.0642-0.14845 0.27564-0.0555 0.726-0.17806 1.0008-0.27188 0.2748-0.0942 0.71473-0.27648 0.97747-0.40491 0.26271-0.12885 0.69431-0.37905 0.9591-0.55628 0.2648-0.17722 0.67721-0.49748 0.91658-0.71224 0.23894-0.21433 0.58839-0.57212 0.77602-0.79522 0.18723-0.2231 0.45119-0.57004 0.58631-0.77145 0.1351-0.20141 0.36904-0.6109 0.51999-0.91028 0.15096-0.29898 0.35237-0.78187 0.44745-1.0725 0.0951-0.29107 0.20975-0.71224 0.25479-0.9366 0.045-0.22393 0.10174-0.58964 0.12593-0.81233 0.0242-0.22268 0.0442-0.63009 0.0442-0.90488 0-0.2748-0.0288-0.72141-0.0642-0.99202-0.035-0.27063-0.10342-0.66095-0.15137-0.86737-0.048-0.20642-0.16055-0.58798-0.24978-0.84735-0.09-0.25801-0.273-0.68925-0.40725-0.95701-0.135-0.26849-0.35625-0.65625-0.492-0.86249-0.13575-0.20625-0.3885-0.54451-0.56175-0.75076s-0.453-0.50775-0.6225-0.669c-0.1695-0.16199-0.4395-0.399-0.6-0.52724-0.1605-0.12826-0.45525-0.339-0.65475-0.46875-0.20025-0.12901-0.59475-0.34651-0.876-0.48226-0.282-0.1365-0.738-0.32175-1.0132-0.4125-0.27525-0.0907-0.68775-0.20325-0.91725-0.24975-0.22935-0.0467-0.61133-0.10425-0.849-0.12843-0.23727-0.0242-0.64093-0.0405-0.89655-0.0367zm20.698 0.0133c-0.47663-0.0113-0.88155 0.002-1.1676 0.04-0.24103 0.0313-0.6109 0.0955-0.8223 0.1422-0.21184 0.0467-0.58172 0.15095-0.82193 0.23143-0.2406 0.0805-0.63801 0.24103-0.88282 0.35654-0.2452 0.11551-0.62592 0.32151-0.84608 0.45786-0.22059 0.13636-0.59839 0.40616-0.83985 0.60006-0.24186 0.19349-0.59422 0.51542-0.78315 0.71516-0.18931 0.19974-0.45744 0.51208-0.59589 0.69431-0.13844 0.18181-0.34736 0.48497-0.46453 0.67345-0.11718 0.18848-0.31233 0.54919-0.43368 0.80145-0.12135 0.25229-0.2944 0.68388-0.38489 0.9591-0.0901 0.27522-0.20225 0.69722-0.24978 0.93825-0.0475 0.24061-0.10551 0.62008-0.12927 0.84277-0.0238 0.22268-0.0434 0.59798-0.043 0.834 0 0.23603 0.0188 0.59798 0.0417 0.80438 0.0225 0.20642 0.0809 0.58171 0.12969 0.834 0.0488 0.25228 0.15012 0.6476 0.22518 0.87862 0.0751 0.23061 0.22809 0.62467 0.34027 0.8757 0.11176 0.25062 0.2969 0.61257 0.41075 0.804 0.11384 0.1914 0.35695 0.54753 0.54001 0.79148 0.18306 0.24394 0.51125 0.62175 0.72975 0.84023 0.21851 0.2185 0.5567 0.52124 0.75143 0.67303 0.19515 0.15178 0.49372 0.36487 0.66428 0.47329 0.17014 0.10884 0.52667 0.30692 0.7923 0.43994 0.26521 0.13344 0.71015 0.31942 0.98872 0.41366 0.27814 0.0943 0.72433 0.21642 0.9912 0.27188 0.26646 0.0555 0.74268 0.12219 1.0575 0.14887 0.31859 0.0271 0.76688 0.0363 1.0104 0.0208 0.24103-0.015 0.61925-0.0538 0.84068-0.0859 0.22184-0.0317 0.59714-0.10717 0.834-0.16722 0.23727-0.06 0.60965-0.17556 0.82732-0.25729 0.2181-0.0813 0.5838-0.24144 0.81315-0.3557 0.22935-0.11468 0.57672-0.31192 0.77145-0.43868 0.19516-0.12636 0.46704-0.31609 0.60465-0.42118 0.13761-0.10508 0.44453-0.37905 0.68222-0.60924 0.23769-0.23018 0.54585-0.5592 0.68471-0.731 0.13886-0.17222 0.35904-0.47413 0.48872-0.67137 0.13011-0.19765 0.33152-0.5446 0.44828-0.77145 0.11634-0.22726 0.27022-0.56044 0.34194-0.74059 0.0717-0.18057 0.1864-0.52751 0.2552-0.77145 0.0688-0.24395 0.16055-0.66887 0.20391-0.9441 0.0434-0.27522 0.0909-0.69765 0.1055-0.93825 0.0146-0.24103 0.006-0.68722-0.0192-0.99165-0.0246-0.30441-0.083-0.7456-0.12927-0.97995-0.0463-0.23436-0.13218-0.58547-0.19098-0.78023-0.0588-0.19432-0.16263-0.49456-0.23102-0.6672-0.0705-0.1725-0.20775-0.4755-0.3075-0.67275-0.099-0.19725-0.2595-0.48825-0.35625-0.64575-0.096-0.15825-0.30525-0.46125-0.46425-0.6735-0.15975-0.21225-0.47175-0.56925-0.693-0.79425-0.22275-0.22425-0.57975-0.543-0.7935-0.70875-0.2145-0.165-0.5535-0.402-0.75375-0.525-0.1995-0.12375-0.4785-0.2835-0.61875-0.354-0.14025-0.0713-0.44325-0.20325-0.6735-0.2955-0.2295-0.0915-0.62925-0.22275-0.888-0.291-0.2595-0.069-0.6495-0.1545-0.867-0.19125-0.21767-0.0363-0.72433-0.0734-1.1259-0.083zm20.48-0.0133c-0.24394 0.004-0.51875 0.0133-0.61049 0.0213-0.0917 0.008-0.35445 0.043-0.5838 0.0776-0.22935 0.035-0.60256 0.11009-0.82942 0.16764-0.22685 0.0571-0.6305 0.1889-0.89655 0.29273-0.26646 0.10383-0.6622 0.28398-0.88028 0.40032-0.21767 0.11593-0.5838 0.33902-0.81315 0.49581-0.22935 0.15638-0.59047 0.43576-0.8019 0.62091-0.21183 0.18514-0.53667 0.50999-0.72183 0.72183-0.18514 0.21142-0.46453 0.57254-0.62049 0.8019-0.15638 0.22935-0.3703 0.57629-0.47538 0.77145-0.10467 0.19474-0.27605 0.5667-0.37989 0.82605-0.10425 0.25979-0.23603 0.64427-0.29316 0.85485-0.0575 0.211-0.13301 0.53334-0.16805 0.71682-0.035 0.18348-0.0863 0.6009-0.11342 0.92738-0.0388 0.46412-0.0384 0.72766 0.002 1.2093 0.0284 0.33861 0.0963 0.82403 0.15054 1.0788 0.0546 0.25479 0.1768 0.69597 0.27188 0.97995 0.0947 0.2844 0.28439 0.73935 0.42117 1.0112 0.13678 0.2723 0.36196 0.66428 0.5004 0.87112 0.13845 0.20684 0.36279 0.51208 0.49832 0.67805 0.13552 0.16597 0.3924 0.44702 0.57129 0.62508 0.17848 0.17765 0.45661 0.43117 0.61716 0.56295 0.16096 0.13177 0.45161 0.34611 0.64635 0.47704 0.19473 0.13053 0.6084 0.36405 0.91905 0.51875 0.31108 0.15471 0.77812 0.35194 1.0379 0.43827 0.26021 0.0863 0.69431 0.20225 0.96495 0.25729 0.27063 0.055 0.75563 0.12135 1.0775 0.14761 0.4416 0.0359 0.73266 0.0359 1.1855-0.00082 0.32985-0.0267 0.81735-0.0934 1.0829-0.14846 0.26563-0.0555 0.68596-0.16805 0.93322-0.25062 0.2477-0.0826 0.66387-0.25228 0.92445-0.3778 0.26105-0.1251 0.61758-0.31401 0.79185-0.41992 0.17472-0.10634 0.45077-0.29315 0.61382-0.41575 0.16263-0.12259 0.42951-0.34277 0.59298-0.48914 0.16346-0.14637 0.42784-0.41033 0.58797-0.58672 0.15971-0.17597 0.39281-0.45578 0.51708-0.62091 0.12426-0.16555 0.30649-0.43243 0.40491-0.59297 0.0984-0.16055 0.27771-0.48914 0.39906-0.72975 0.12093-0.24103 0.30441-0.69139 0.40741-1.0008 0.103-0.30983 0.22727-0.76935 0.27605-1.0216 0.0488-0.25229 0.1101-0.71975 0.13595-1.0392 0.0363-0.4391 0.0358-0.72266-0.002-1.1676-0.0271-0.32275-0.078-0.73726-0.11301-0.9207-0.035-0.18348-0.10175-0.47455-0.14845-0.64635-0.0463-0.17222-0.14178-0.47246-0.21184-0.6672-0.0705-0.19516-0.22684-0.56087-0.34819-0.81315-0.12135-0.25229-0.33694-0.63551-0.47913-0.85155-0.1422-0.21601-0.36155-0.52208-0.48789-0.68013-0.12594-0.15804-0.34361-0.40949-0.48331-0.5592-0.13969-0.14929-0.42409-0.4145-0.63216-0.5888-0.20767-0.17431-0.57463-0.44703-0.81563-0.60591-0.24061-0.15929-0.66303-0.39823-0.93825-0.53167-0.27522-0.13386-0.72558-0.31775-1.0008-0.40908-0.27522-0.0913-0.69722-0.20433-0.93825-0.25062-0.24061-0.0463-0.63218-0.10425-0.86985-0.12844-0.23727-0.0242-0.63134-0.0409-0.8757-0.0371zm20.162-0.002c-0.25561 0.002-0.66136 0.0288-0.9024 0.0588-0.24061 0.03-0.61591 0.0947-0.834 0.14345-0.21767 0.0492-0.58547 0.15262-0.81735 0.22977-0.23144 0.0776-0.60465 0.22643-0.82898 0.33151-0.22476 0.10467-0.57003 0.28731-0.7677 0.40575-0.19724 0.11801-0.52792 0.34152-0.73434 0.49665-0.20641 0.15512-0.51999 0.41575-0.69681 0.57921-0.1768 0.16388-0.46245 0.4662-0.63508 0.67179-0.17264 0.20599-0.42618 0.54085-0.56337 0.74476-0.13719 0.20433-0.34236 0.54627-0.45662 0.76058-0.11384 0.21433-0.28272 0.58088-0.37572 0.81525-0.0926 0.23394-0.22476 0.63759-0.29356 0.89655s-0.15346 0.64885-0.1889 0.86692c-0.035 0.21767-0.0755 0.6401-0.0901 0.93825-0.0155 0.32276-0.006 0.7527 0.0241 1.0634 0.028 0.28648 0.088 0.7089 0.13386 0.93825 0.0459 0.22935 0.15012 0.62342 0.23143 0.8757 0.0813 0.25229 0.22935 0.64176 0.32818 0.86573 0.0993 0.22351 0.28523 0.58505 0.41325 0.80272 0.12802 0.21768 0.37071 0.5788 0.53918 0.80228 0.16847 0.22351 0.47413 0.57629 0.67929 0.78352 0.20517 0.20725 0.51458 0.49248 0.68722 0.63384 0.17264 0.14095 0.47162 0.36237 0.66428 0.49164 0.19224 0.12969 0.60423 0.36154 0.91493 0.51583 0.31108 0.15429 0.77812 0.35111 1.0379 0.43743 0.26022 0.0863 0.69181 0.20141 0.95955 0.25604 0.26772 0.0542 0.73893 0.1205 1.0471 0.14678 0.3115 0.0263 0.75517 0.0354 0.99832 0.02 0.24103-0.015 0.61925-0.0538 0.84068-0.0859 0.22184-0.0317 0.59714-0.10717 0.834-0.16722 0.23727-0.06 0.60965-0.17556 0.82732-0.25729 0.2181-0.0813 0.5934-0.24645 0.834-0.36738 0.24103-0.12093 0.61633-0.33694 0.834-0.48038 0.2181-0.14303 0.52751-0.36779 0.68805-0.49957 0.16055-0.13135 0.46412-0.41491 0.67471-0.62967 0.21058-0.21517 0.46662-0.49581 0.56962-0.62341 0.10258-0.12761 0.29274-0.39032 0.42284-0.5838 0.12968-0.19349 0.36237-0.60591 0.51708-0.91658 0.1547-0.31108 0.35194-0.77767 0.43785-1.0371 0.0863-0.25937 0.20183-0.68847 0.25687-0.95325 0.0546-0.26479 0.1226-0.74934 0.15012-1.0767 0.0396-0.46204 0.0396-0.72933 0.002-1.1922-0.0271-0.32818-0.0955-0.8223-0.15221-1.0984-0.0563-0.27605-0.17973-0.72641-0.27438-1.0008-0.0942-0.27439-0.27272-0.7064-0.39615-0.95993-0.12344-0.25354-0.35487-0.65677-0.51375-0.89655-0.15888-0.23977-0.44369-0.6205-0.633-0.84652-0.18891-0.2256-0.53334-0.57921-0.76523-0.78563-0.23143-0.20641-0.64468-0.525-0.91822-0.70807-0.27314-0.18347-0.7235-0.44327-1.0008-0.57712-0.2769-0.13427-0.72892-0.319-1.0041-0.41032-0.27522-0.0913-0.69723-0.20434-0.93825-0.25063-0.24061-0.0463-0.63218-0.10424-0.86985-0.12843-0.23727-0.0242-0.64093-0.0421-0.89655-0.0396zm21.282 0.015c-0.47329-0.0109-0.88365 0.004-1.1676 0.0409-0.24061 0.0313-0.61091 0.0955-0.8223 0.1422-0.21184 0.0467-0.58714 0.1522-0.834 0.23394-0.24728 0.0822-0.69764 0.27063-1.0004 0.41866-0.30316 0.14846-0.73475 0.39449-0.9591 0.54669-0.22476 0.15179-0.54877 0.39449-0.72099 0.53919-0.1718 0.14428-0.44619 0.3999-0.60924 0.56795-0.16304 0.16805-0.39615 0.42742-0.51791 0.57671-0.12219 0.14887-0.33318 0.43993-0.46913 0.64635-0.13593 0.20641-0.35736 0.59422-0.49206 0.86235-0.13427 0.26771-0.31858 0.70223-0.40949 0.96532-0.0909 0.26313-0.21225 0.69139-0.2698 0.95161-0.058 0.2602-0.12468 0.65552-0.14886 0.87817-0.0246 0.22267-0.0442 0.63843-0.0442 0.92407 0 0.28565 0.03 0.7506 0.0667 1.0337 0.0363 0.28314 0.11843 0.72099 0.18223 0.97327 0.0642 0.25229 0.18598 0.64636 0.27147 0.8757 0.0855 0.22935 0.26188 0.62342 0.39198 0.87571 0.13052 0.25228 0.34569 0.62091 0.47788 0.81937 0.1326 0.19891 0.38906 0.53835 0.57004 0.75518 0.18098 0.21684 0.46579 0.52208 0.63342 0.67804 0.16722 0.15596 0.48998 0.422 0.71641 0.59131 0.22684 0.1693 0.58755 0.41157 0.80227 0.53793 0.21476 0.12635 0.57546 0.31149 0.80145 0.41199 0.2256 0.10008 0.62467 0.24854 0.88613 0.32986 0.26188 0.0813 0.66345 0.18556 0.8928 0.23101 0.22935 0.0454 0.67054 0.10425 0.97995 0.1301 0.31192 0.0267 0.7581 0.0355 1.0008 0.02 0.24103-0.015 0.6255-0.0559 0.85485-0.0901s0.62508-0.11676 0.879-0.18348c0.25437-0.0667 0.63092-0.18556 0.83692-0.26437 0.20642-0.0784 0.53126-0.22143 0.72267-0.31775 0.19098-0.0959 0.5154-0.27856 0.72057-0.40575 0.20558-0.12676 0.55461-0.3753 0.77565-0.5521 0.22101-0.1768 0.58088-0.50832 0.79935-0.73684 0.21851-0.22852 0.51583-0.57421 0.66095-0.76815 0.1447-0.1939 0.36613-0.52667 0.49206-0.74017 0.12593-0.21309 0.30065-0.54293 0.38822-0.73267 0.088-0.18931 0.21893-0.51249 0.29107-0.71724 0.0725-0.20475 0.17681-0.55086 0.23102-0.76852 0.0546-0.2181 0.12968-0.60257 0.1668-0.85485 0.0417-0.28273 0.0671-0.73101 0.0671-1.1676 0-0.43951-0.0259-0.88282-0.0684-1.1663-0.0371-0.25145-0.12135-0.66428-0.18682-0.9174-0.0655-0.25271-0.1839-0.62967-0.26354-0.8373-0.0797-0.20767-0.23853-0.5642-0.3532-0.7923-0.11468-0.2281-0.31985-0.5838-0.4562-0.7902-0.13636-0.20641-0.36029-0.51625-0.49749-0.68805-0.13761-0.17222-0.427-0.48831-0.64301-0.70264-0.21601-0.21476-0.57587-0.52834-0.79935-0.69723-0.22351-0.16888-0.58922-0.41491-0.81315-0.5471-0.22351-0.13219-0.63676-0.33944-0.91822-0.46037-0.28107-0.12135-0.71266-0.2773-0.9591-0.34694-0.24603-0.0696-0.66303-0.16429-0.927-0.211-0.31359-0.055-0.73226-0.0901-1.2093-0.10092zm20.752-0.015c-0.25562 0.002-0.68012 0.0305-0.9441 0.0621-0.26354 0.0317-0.67637 0.10676-0.9174 0.1668-0.24061 0.06-0.63467 0.17973-0.8757 0.26563-0.24061 0.0859-0.64427 0.26021-0.89655 0.38698-0.25229 0.12719-0.62759 0.34236-0.834 0.47872-0.20642 0.13594-0.51666 0.36153-0.6893 0.50082-0.17306 0.13927-0.50123 0.44785-0.72975 0.68554-0.22893 0.23727-0.52251 0.57421-0.65344 0.7481-0.13052 0.1743-0.34486 0.49289-0.47621 0.70848-0.13136 0.21517-0.32193 0.56962-0.42368 0.78772-0.10174 0.21767-0.25603 0.61174-0.34319 0.8757-0.0867 0.26354-0.19599 0.65761-0.24269 0.8757-0.0467 0.21767-0.10717 0.59214-0.1347 0.83153-0.0308 0.27021-0.0412 0.72141-0.0271 1.1884 0.0121 0.41408 0.053 0.91867 0.0905 1.1205 0.0375 0.20224 0.11426 0.54627 0.17097 0.76477 0.0572 0.21851 0.16972 0.56921 0.25062 0.7794 0.0813 0.21017 0.24228 0.56963 0.35778 0.79898 0.11593 0.22935 0.32818 0.59673 0.47163 0.81607 0.14387 0.21976 0.36946 0.52917 0.50207 0.68805s0.34653 0.39907 0.47496 0.53376c0.12886 0.13427 0.40282 0.38615 0.60924 0.55961 0.20641 0.17348 0.57254 0.44577 0.81315 0.60465 0.24103 0.15888 0.6476 0.39073 0.90405 0.515 0.25603 0.12427 0.71599 0.30858 1.0216 0.40908 0.30524 0.1005 0.75435 0.22101 0.9975 0.26813 0.24311 0.0467 0.70098 0.10676 1.0174 0.13302 0.43076 0.0359 0.72099 0.0363 1.1559 0.00083 0.319-0.0263 0.77392-0.0847 1.0104-0.13053 0.23644-0.0455 0.6059-0.13635 0.82065-0.20182 0.21475-0.0655 0.53668-0.17765 0.71473-0.24978 0.17848-0.0717 0.45787-0.19766 0.62175-0.28022 0.16347-0.0826 0.44953-0.24478 0.6351-0.36113 0.18556-0.11593 0.47913-0.319 0.65301-0.45078 0.17348-0.13177 0.46955-0.38489 0.65803-0.56212 0.18848-0.17722 0.48206-0.48872 0.65261-0.6918 0.17013-0.20266 0.4024-0.50623 0.51541-0.67428 0.11342-0.16806 0.29399-0.46371 0.40157-0.6572 0.10758-0.19348 0.27855-0.54585 0.37989-0.78232 0.10133-0.23686 0.24102-0.62133 0.31024-0.85403 0.0692-0.23269 0.16472-0.63009 0.21184-0.8832 0.0571-0.30399 0.0938-0.7139 0.10842-1.2126 0.0137-0.46078 0.003-0.9216-0.0271-1.1884-0.0271-0.23935-0.0967-0.64885-0.1547-0.9099-0.0575-0.26104-0.16972-0.66094-0.24895-0.8886-0.0792-0.22726-0.21684-0.57129-0.30608-0.7635-0.0888-0.19265-0.26479-0.525-0.39073-0.73809-0.12593-0.2135-0.34778-0.54752-0.49331-0.74226-0.14553-0.19515-0.4687-0.56545-0.71807-0.82275-0.24937-0.25771-0.63384-0.6059-0.85485-0.77392-0.22101-0.16805-0.53293-0.38739-0.69347-0.48747-0.16055-0.10008-0.49415-0.28314-0.74101-0.40616-0.24728-0.12343-0.69764-0.30649-1.0008-0.40741-0.30358-0.10133-0.73934-0.22143-0.9687-0.2673-0.22935-0.0459-0.61133-0.10341-0.849-0.12718-0.23727-0.0242-0.64093-0.0417-0.89655-0.0392zm-124.4 21.559c-0.23269 0.003-0.58213 0.0221-0.7773 0.0421-0.19474 0.02-0.55169 0.0755-0.7923 0.12385-0.24061 0.048-0.66303 0.16097-0.93825 0.25104-0.27522 0.0901-0.731 0.27479-1.0129 0.41116-0.28147 0.13594-0.67554 0.35362-0.8757 0.48372-0.19974 0.12969-0.52416 0.36404-0.72057 0.52042-0.19683 0.15637-0.54377 0.4783-0.77145 0.71473-0.2274 0.237-0.5205 0.573-0.65145 0.747-0.1305 0.174-0.34485 0.49275-0.47625 0.70875-0.13133 0.2145-0.32063 0.56775-0.42075 0.78375-0.1005 0.21525-0.24563 0.57375-0.32318 0.7965-0.0775 0.22275-0.18802 0.61875-0.24562 0.87975-0.0579 0.26175-0.12758 0.6585-0.15465 0.8835-0.0317 0.25688-0.0417 0.6989-0.0279 1.1884 0.0129 0.45036 0.0521 0.94703 0.0934 1.1759 0.0392 0.21767 0.13302 0.61215 0.20892 0.8757 0.0755 0.26354 0.23019 0.69722 0.34278 0.96367 0.11301 0.26605 0.32359 0.6818 0.46787 0.92408s0.38572 0.60631 0.53626 0.80895c0.15096 0.20224 0.49123 0.58505 0.756 0.85027 0.2648 0.26522 0.63718 0.59965 0.82688 0.74309 0.18973 0.14345 0.49123 0.35112 0.66928 0.46162 0.17806 0.11051 0.45828 0.26855 0.62259 0.35153 0.16388 0.0826 0.4833 0.22393 0.70932 0.31401 0.22601 0.0901 0.58839 0.21183 0.80437 0.27063 0.21642 0.0588 0.5396 0.13427 0.71807 0.16846 0.17806 0.0338 0.56295 0.0834 0.85485 0.10967 0.31275 0.0288 0.7335 0.0367 1.0254 0.02 0.27231-0.0159 0.67554-0.0555 0.89655-0.0888 0.22101-0.0329 0.61508-0.11718 0.8757-0.18682 0.26105-0.0696 0.64593-0.1939 0.85485-0.27605 0.20934-0.0826 0.52959-0.22435 0.71182-0.31526 0.18182-0.0909 0.47705-0.25603 0.65552-0.36696 0.17848-0.1105 0.47997-0.31942 0.66971-0.4637 0.18973-0.14386 0.51124-0.42159 0.7139-0.61674 0.20267-0.19516 0.5054-0.52375 0.67304-0.731 0.16722-0.20684 0.40782-0.53627 0.53459-0.73184 0.12676-0.19515 0.3336-0.56128 0.45912-0.81315 0.12593-0.25145 0.2944-0.63592 0.37488-0.85357 0.0805-0.21809 0.19348-0.59339 0.25103-0.834 0.0575-0.24103 0.12969-0.5788 0.16055-0.7506 0.0359-0.20225 0.055-0.65177 0.0542-1.2718-0.00083-0.80985-0.015-1.0337-0.0922-1.4386-0.05-0.26354-0.14762-0.66929-0.21642-0.90113-0.0688-0.23185-0.21976-0.64551-0.33569-0.9195-0.11551-0.27355-0.32943-0.69639-0.47538-0.93952-0.14595-0.24269-0.38447-0.5984-0.53001-0.7902-0.14553-0.19182-0.44327-0.53376-0.66178-0.75975-0.21892-0.22643-0.53835-0.525-0.71056-0.66386-0.1718-0.13928-0.49373-0.37155-0.71516-0.51708-0.22101-0.14512-0.63384-0.37614-0.9174-0.51291-0.28314-0.13678-0.74017-0.32235-1.0154-0.41241-0.27522-0.0901-0.69722-0.20267-0.93825-0.2502-0.24061-0.0475-0.63218-0.10592-0.86985-0.12927-0.23727-0.0238-0.62216-0.0405-0.85485-0.0375zm21.016 0c-0.23269 0.003-0.58214 0.0221-0.7773 0.0421-0.19474 0.02-0.55127 0.0755-0.7923 0.12344-0.24061 0.0475-0.69055 0.17097-0.99915 0.27356-0.30858 0.10258-0.76523 0.28898-1.0145 0.41449-0.24936 0.12552-0.57837 0.30607-0.73141 0.40157s-0.41867 0.27731-0.59089 0.40407c-0.1718 0.12719-0.51666 0.42868-0.7656 0.66971-0.24895 0.24144-0.5642 0.57712-0.70098 0.74643-0.13636 0.1693-0.34111 0.44619-0.45495 0.61465-0.11425 0.16889-0.309 0.49957-0.43326 0.73476-0.12468 0.23518-0.30316 0.62174-0.39698 0.85859-0.0938 0.23686-0.22476 0.64135-0.29107 0.89821-0.0659 0.25687-0.15095 0.67262-0.1889 0.92407-0.0438 0.29232-0.068 0.72099-0.0676 1.1872 0 0.45162 0.0254 0.89655 0.0667 1.1676 0.0363 0.24061 0.11092 0.61591 0.16638 0.834 0.055 0.21768 0.15888 0.56504 0.23101 0.77145 0.0726 0.20642 0.22059 0.56295 0.32943 0.7923s0.29441 0.57296 0.41283 0.76313c0.11843 0.19057 0.32318 0.49039 0.45537 0.66637 0.1326 0.17639 0.427 0.51416 0.65469 0.75105 0.22768 0.23643 0.57462 0.55836 0.77145 0.71473 0.19641 0.15638 0.50165 0.37781 0.67804 0.49289 0.17597 0.11468 0.50457 0.30316 0.72975 0.41867 0.22476 0.11551 0.5592 0.2698 0.74268 0.34277 0.18348 0.0726 0.5642 0.19557 0.84653 0.27314 0.28189 0.0771 0.70389 0.16846 0.93825 0.20307 0.23394 0.0342 0.64134 0.0746 0.90487 0.0897 0.27814 0.0159 0.70598 0.007 1.0196-0.0217 0.2969-0.0271 0.71891-0.0859 0.93825-0.13094 0.21893-0.0446 0.56337-0.12969 0.7656-0.1889 0.20225-0.0588 0.54794-0.18056 0.76853-0.27063 0.22017-0.0897 0.56169-0.24978 0.75855-0.35611 0.19641-0.10634 0.5104-0.29482 0.69722-0.41909 0.18723-0.12468 0.51833-0.37488 0.73642-0.5567 0.21768-0.18222 0.53085-0.47663 0.69556-0.65468 0.16514-0.17806 0.42701-0.49248 0.58297-0.6989 0.15554-0.20642 0.36988-0.51875 0.47621-0.69431 0.10634-0.17514 0.28607-0.51291 0.39949-0.75059 0.11301-0.23728 0.28064-0.65678 0.37238-0.93203 0.0917-0.27522 0.20391-0.68805 0.24978-0.9174 0.0459-0.22935 0.103-0.59923 0.12719-0.82193 0.0242-0.22267 0.0442-0.63009 0.0442-0.90487 0-0.2748-0.0288-0.72141-0.0638-0.99203-0.035-0.27063-0.10884-0.67971-0.16346-0.90907-0.055-0.22935-0.17472-0.62592-0.26563-0.8811-0.0913-0.2552-0.2748-0.67721-0.40783-0.93825-0.13302-0.26063-0.36237-0.65261-0.50916-0.8703-0.1472-0.21809-0.35403-0.49957-0.45953-0.6255-0.10592-0.12635-0.32401-0.36738-0.48539-0.53585-0.16137-0.16888-0.43368-0.4245-0.6059-0.56837-0.1718-0.14386-0.49623-0.38614-0.72099-0.53793-0.22435-0.1522-0.65594-0.39823-0.9591-0.5471-0.30274-0.14846-0.77685-0.34403-1.0534-0.43451-0.27648-0.0901-0.6989-0.20183-0.93825-0.24812-0.23978-0.0459-0.63009-0.10383-0.86775-0.12802-0.23727-0.0242-0.62217-0.0417-0.85485-0.0388zm20.698 0.0167c-0.37822-0.01-0.8457 0.00083-1.0379 0.0225-0.19265 0.0217-0.53959 0.078-0.77145 0.1251-0.23185 0.0467-0.57504 0.13177-0.76267 0.1889-0.18765 0.0567-0.52417 0.17765-0.74768 0.26855-0.22352 0.0909-0.56712 0.25228-0.76395 0.35862-0.19641 0.10633-0.51041 0.29481-0.69723 0.41908-0.18723 0.12468-0.51833 0.37488-0.73642 0.5567-0.21767 0.18222-0.53084 0.47663-0.69556 0.65469-0.16513 0.17805-0.42617 0.49248-0.58046 0.69889-0.15471 0.20642-0.36821 0.51666-0.47455 0.6893-0.10633 0.17264-0.28981 0.51834-0.40824 0.76898-0.11801 0.2502-0.28564 0.67179-0.37238 0.93697-0.0867 0.26522-0.19641 0.67888-0.24395 0.91988-0.0475 0.24061-0.1055 0.62008-0.12926 0.84277-0.0238 0.22268-0.043 0.60757-0.0421 0.85485 0.00082 0.24729 0.0275 0.66595 0.0592 0.92948 0.0321 0.26354 0.098 0.65761 0.14637 0.8757 0.0488 0.21767 0.15512 0.59297 0.23643 0.834 0.0809 0.24061 0.25646 0.66303 0.38948 0.93825 0.13344 0.27522 0.35862 0.6772 0.50123 0.89325 0.1422 0.21601 0.36362 0.52584 0.49206 0.68805s0.41283 0.47371 0.63175 0.6918c0.21935 0.21809 0.59089 0.54127 0.82605 0.71807 0.23478 0.17639 0.60924 0.42826 0.8319 0.5592 0.22268 0.13136 0.61216 0.32777 0.86573 0.43702 0.25312 0.10925 0.67637 0.26354 0.9399 0.34319 0.26396 0.0792 0.70515 0.18223 0.9804 0.22893 0.27564 0.0467 0.73517 0.098 1.0216 0.11384 0.31901 0.0175 0.72308 0.009 1.042-0.0213 0.2869-0.0275 0.71724-0.0876 0.957-0.13344 0.23936-0.0463 0.66178-0.15804 0.93825-0.24853 0.27647-0.0909 0.73309-0.27605 1.015-0.41241 0.28148-0.13595 0.67555-0.35362 0.8757-0.48372 0.19975-0.12969 0.51333-0.35362 0.69682-0.49706 0.18347-0.14345 0.53125-0.46454 0.77272-0.71391 0.24186-0.24936 0.52542-0.56586 0.6305-0.70347 0.10467-0.13761 0.29441-0.4095 0.42075-0.60465 0.12677-0.19516 0.31734-0.52793 0.42326-0.74018 0.10633-0.21225 0.24978-0.52876 0.31942-0.70348 0.0692-0.1743 0.18223-0.51666 0.25104-0.76057 0.0688-0.24395 0.16054-0.66887 0.2039-0.9441 0.0434-0.27522 0.0909-0.69764 0.10551-0.93825 0.0146-0.24103 0.006-0.68263-0.0183-0.9816-0.0242-0.29899-0.0726-0.68972-0.10634-0.8682-0.0345-0.17775-0.10125-0.477-0.14925-0.6645s-0.153-0.51975-0.234-0.73725c-0.0817-0.21825-0.258-0.61425-0.393-0.8805-0.13575-0.26625-0.35025-0.639-0.47775-0.8295-0.12675-0.18975-0.3465-0.48675-0.4875-0.65925-0.14175-0.17325-0.42675-0.48225-0.63375-0.68775-0.20775-0.20475-0.56025-0.51075-0.78375-0.67875-0.2235-0.16875-0.5895-0.41475-0.813-0.54675s-0.63975-0.3405-0.92475-0.46275c-0.285-0.123-0.75-0.2865-1.0335-0.3645s-0.7065-0.171-0.94125-0.207c-0.234-0.036-0.73575-0.0735-1.1145-0.0825zm20.746 0c-0.3899-0.008-0.76523-0.008-0.834 0.002-0.0688 0.01-0.29399 0.038-0.5004 0.0634s-0.62342 0.10925-0.92655 0.18639c-0.30316 0.0772-0.76313 0.22685-1.0216 0.33235-0.25854 0.1055-0.62967 0.27773-0.82485 0.38239-0.19474 0.10508-0.46704 0.26646-0.60465 0.35904-0.13761 0.093-0.40032 0.28189-0.5838 0.42034-0.18348 0.13844-0.52292 0.44118-0.7548 0.6722-0.23144 0.23101-0.5642 0.61257-0.73934 0.84772-0.17514 0.23519-0.42242 0.60215-0.54961 0.8148-0.12718 0.21309-0.31275 0.57338-0.41241 0.80108-0.10008 0.22726-0.24811 0.61966-0.32943 0.87195-0.0813 0.25229-0.18723 0.65469-0.23519 0.89445-0.048 0.23935-0.10967 0.7039-0.13677 1.0321-0.0379 0.46079-0.0379 0.73309 0.00041 1.1993 0.0275 0.33193 0.0976 0.82897 0.15596 1.1046 0.0584 0.27605 0.18181 0.72224 0.2748 0.99202 0.093 0.2698 0.26188 0.68055 0.3753 0.9132 0.11342 0.23269 0.30858 0.58672 0.43368 0.78608 0.12552 0.19974 0.35111 0.52083 0.50123 0.71307 0.15054 0.19265 0.46245 0.53751 0.69305 0.76642 0.23102 0.22893 0.59131 0.54544 0.80108 0.70348 0.20933 0.15804 0.51208 0.36779 0.67262 0.46579 0.16055 0.0984 0.48914 0.27772 0.72975 0.39823 0.24103 0.12093 0.66554 0.29649 0.9441 0.39115 0.27814 0.0942 0.72683 0.21726 0.99705 0.27314 0.27022 0.0559 0.7602 0.12468 1.0896 0.15262 0.46787 0.0396 0.72641 0.04 1.1826 0.00083 0.32109-0.0275 0.78518-0.0888 1.0312-0.13636 0.24603-0.0475 0.69514-0.16763 0.99788-0.2673 0.30274-0.0997 0.77355-0.29232 1.0458-0.42785 0.27271-0.13552 0.63467-0.33651 0.80482-0.44619 0.17014-0.10967 0.46162-0.31817 0.64761-0.46287 0.18597-0.14511 0.5104-0.43451 0.72057-0.64343 0.21058-0.20892 0.49248-0.51833 0.62675-0.68722 0.13386-0.16846 0.3507-0.46912 0.48122-0.66762 0.13052-0.19807 0.34778-0.57963 0.48247-0.84772 0.13469-0.26771 0.32275-0.71933 0.41741-1.0037 0.0951-0.28398 0.21768-0.72516 0.27189-0.97995 0.0546-0.25479 0.12218-0.74934 0.15012-1.0992 0.0396-0.49539 0.0396-0.76395 0.00075-1.2164-0.0271-0.31901-0.0884-0.77393-0.13594-1.0112-0.0476-0.23685-0.15304-0.63717-0.23436-0.88942-0.0813-0.25229-0.22601-0.63718-0.32192-0.85485-0.0955-0.21809-0.28147-0.57921-0.41325-0.80273-0.13177-0.22392-0.38405-0.59922-0.56044-0.834-0.17682-0.23518-0.49999-0.60673-0.71808-0.82605-0.21809-0.21892-0.52792-0.50165-0.68847-0.62841-0.16054-0.12636-0.43493-0.3261-0.61007-0.44369-0.17472-0.11759-0.49372-0.30732-0.7089-0.422-0.21475-0.11467-0.60631-0.29273-0.8703-0.39532-0.26354-0.10258-0.66762-0.23435-0.897-0.29232-0.22976-0.0584-0.59589-0.13552-0.81315-0.1718-0.21767-0.0363-0.71474-0.0734-1.1046-0.0822zm20.182 0c-0.3899-0.008-0.76523-0.008-0.834 0.002-0.0688 0.01-0.29399 0.038-0.5004 0.0634s-0.62342 0.10925-0.92655 0.18639c-0.30316 0.0772-0.76313 0.22685-1.0216 0.33235-0.25854 0.1055-0.62967 0.27773-0.82485 0.38239-0.19516 0.10508-0.49498 0.28564-0.6672 0.40115-0.1718 0.11551-0.44036 0.3115-0.59673 0.43577-0.15637 0.12426-0.40615 0.34027-0.55585 0.47997-0.14929 0.13969-0.41075 0.41991-0.58048 0.62216-0.17012 0.20266-0.41949 0.53251-0.55418 0.73309-0.13511 0.20058-0.3311 0.52416-0.43577 0.7189-0.10508 0.19433-0.2748 0.56003-0.37781 0.81233-0.10257 0.25228-0.24394 0.6747-0.31399 0.93825-0.07 0.26354-0.15554 0.65719-0.19058 0.87405-0.0346 0.21684-0.0751 0.63884-0.0901 0.93825-0.0158 0.324-0.007 0.75435 0.023 1.065 0.0271 0.28647 0.0871 0.70806 0.13301 0.9366 0.0459 0.22851 0.15012 0.62258 0.23186 0.8757 0.0817 0.25311 0.22685 0.63843 0.32276 0.8565 0.0955 0.21767 0.28147 0.57921 0.41324 0.80272 0.13177 0.22393 0.38156 0.59548 0.55545 0.8265 0.17388 0.2306 0.50123 0.60465 0.72724 0.8307 0.22602 0.22643 0.56629 0.5321 0.756 0.67971 0.19016 0.14762 0.48623 0.35862 0.65803 0.46871 0.17222 0.11008 0.52876 0.30816 0.7923 0.43993 0.26354 0.13219 0.70723 0.31734 0.9858 0.41117 0.27814 0.0942 0.72683 0.21726 0.99705 0.27313 0.27022 0.0559 0.7602 0.12468 1.0888 0.15263 0.47078 0.04 0.72432 0.04 1.1922-0.00042 0.32693-0.0279 0.78061-0.0876 1.0088-0.13177 0.22811-0.0446 0.60341-0.13928 0.834-0.21059 0.23061-0.0709 0.60716-0.21058 0.83648-0.31024 0.22935-0.0997 0.55336-0.25604 0.71974-0.34778 0.16638-0.0917 0.43702-0.25645 0.60215-0.36613 0.16471-0.10967 0.43201-0.30483 0.5938-0.4341 0.1618-0.12927 0.44787-0.38823 0.63593-0.57546 0.18765-0.18723 0.45412-0.47829 0.59173-0.64718 0.13802-0.16846 0.35528-0.46287 0.48289-0.65344 0.12801-0.19098 0.35194-0.58296 0.49872-0.8715 0.14637-0.28815 0.34362-0.75225 0.43827-1.0308 0.0947-0.27897 0.21768-0.72933 0.27314-1.0008 0.0554-0.27188 0.12301-0.72891 0.15012-1.0154 0.0296-0.31567 0.0375-0.72641 0.0204-1.042-0.0158-0.28648-0.0671-0.74601-0.11385-1.0216-0.0467-0.27522-0.14969-0.71682-0.22893-0.9804-0.0797-0.26354-0.23393-0.6868-0.34319-0.9399-0.10925-0.25354-0.30566-0.64301-0.43702-0.86573-0.13093-0.22267-0.38071-0.5938-0.55461-0.82522-0.1743-0.23102-0.48788-0.59297-0.69722-0.80438-0.20933-0.211-0.52083-0.49789-0.69305-0.63675-0.1718-0.13928-0.47204-0.35654-0.6672-0.48289s-0.49498-0.30566-0.6672-0.39907c-0.1718-0.0934-0.51916-0.25395-0.77145-0.35695-0.25228-0.10259-0.67471-0.24395-0.93825-0.31401-0.26354-0.07-0.65761-0.15679-0.8757-0.19307-0.21767-0.0359-0.71515-0.0726-1.105-0.0813zm20.731-0.0167c-0.23268 0.003-0.57296 0.0213-0.75645 0.0404-0.18348 0.0192-0.54002 0.0751-0.7923 0.12427-0.25229 0.0496-0.67721 0.16138-0.94448 0.24853-0.2673 0.0872-0.69889 0.2598-0.9591 0.38364-0.2602 0.12385-0.62758 0.32109-0.81607 0.43827-0.18848 0.1176-0.49165 0.32652-0.67346 0.46496-0.18222 0.13844-0.49248 0.40491-0.69013 0.59214-0.19766 0.18723-0.47872 0.4833-0.62467 0.65803-0.14553 0.17472-0.38947 0.50165-0.54168 0.72641-0.15262 0.22476-0.38906 0.63175-0.52542 0.90405s-0.32234 0.71056-0.41325 0.97372c-0.0909 0.26313-0.21225 0.69139-0.26979 0.9516-0.058 0.26021-0.12469 0.65553-0.14887 0.87818-0.0246 0.22267-0.0442 0.63843-0.0442 0.92407 0 0.28565 0.03 0.7506 0.0667 1.0337 0.0363 0.28314 0.11843 0.72099 0.18223 0.97327 0.0642 0.25229 0.1864 0.64635 0.2723 0.8757 0.0863 0.22935 0.2402 0.58464 0.3432 0.78938 0.10257 0.20475 0.2798 0.52291 0.39406 0.70723s0.33277 0.49457 0.48497 0.69014c0.15262 0.19516 0.39907 0.48414 0.54794 0.64176 0.14887 0.15763 0.43993 0.42909 0.64718 0.60298 0.20725 0.17348 0.5738 0.44577 0.81443 0.60465 0.24102 0.15888 0.64426 0.38865 0.89655 0.51083 0.25228 0.12176 0.67929 0.29732 0.94912 0.38989 0.2698 0.0926 0.71057 0.21476 0.97995 0.27147 0.26938 0.0567 0.7335 0.12552 1.0316 0.15221 0.32234 0.0296 0.74268 0.038 1.0371 0.0208 0.2723-0.0159 0.6697-0.0546 0.8832-0.0867s0.58213-0.10759 0.81855-0.16722c0.23685-0.06 0.60882-0.17556 0.8265-0.25729 0.21809-0.0813 0.59339-0.24645 0.834-0.36738 0.24102-0.12093 0.60673-0.33109 0.81315-0.46746 0.20641-0.13594 0.51666-0.36153 0.6893-0.50082 0.17305-0.13927 0.50123-0.44785 0.72975-0.68554 0.22893-0.23727 0.52375-0.57588 0.65635-0.75225 0.13219-0.17597 0.33736-0.4758 0.45537-0.66637 0.11843-0.19015 0.30399-0.53376 0.41199-0.76312 0.10801-0.22935 0.25646-0.58589 0.32902-0.7923 0.073-0.20642 0.17723-0.55378 0.23144-0.77145 0.0546-0.2181 0.12968-0.60257 0.1668-0.85485 0.0417-0.28356 0.0671-0.72892 0.0667-1.1676-0.00042-0.42534-0.0267-0.88403-0.0655-1.1468-0.0358-0.24103-0.11425-0.6351-0.17389-0.8757-0.0596-0.24103-0.19182-0.65386-0.29356-0.9174-0.10175-0.26355-0.2869-0.67221-0.41117-0.90743-0.12426-0.23518-0.319-0.56587-0.43326-0.73475-0.11384-0.16847-0.31859-0.44536-0.45495-0.61466-0.13677-0.1693-0.45202-0.50499-0.70097-0.74643-0.24895-0.24102-0.59631-0.54585-0.77145-0.67679-0.17556-0.13052-0.4758-0.3336-0.6672-0.45036-0.19182-0.11676-0.52667-0.29773-0.74476-0.40198-0.21768-0.10467-0.6401-0.27063-0.93825-0.36947-0.29816-0.0988-0.73893-0.2185-0.97995-0.26563-0.24061-0.0475-0.63218-0.10508-0.86985-0.12801-0.23727-0.0234-0.62217-0.0396-0.85485-0.0367zm21.016 0c-0.23268 0.003-0.58213 0.0221-0.7773 0.0421-0.19474 0.02-0.55127 0.0755-0.7923 0.12385-0.24061 0.048-0.66303 0.16097-0.93825 0.25104-0.27522 0.0901-0.731 0.27479-1.0129 0.41116-0.28147 0.13594-0.67554 0.35362-0.8757 0.48289-0.19974 0.12969-0.53418 0.37405-0.74351 0.54335-0.20892 0.1693-0.55586 0.49123-0.77145 0.71557-0.21517 0.22435-0.4979 0.55044-0.62884 0.72433-0.13052 0.17389-0.34485 0.49248-0.47621 0.70807-0.13135 0.21518-0.32109 0.5692-0.422 0.78607-0.1005 0.21684-0.25521 0.61091-0.34319 0.8757-0.088 0.2648-0.19808 0.65929-0.24478 0.87735-0.0463 0.21768-0.10676 0.59214-0.13428 0.83153-0.0308 0.26897-0.0413 0.72349-0.0275 1.1884 0.0146 0.49873 0.0513 0.90862 0.10843 1.2126 0.0471 0.25312 0.14261 0.65052 0.21183 0.8832 0.0692 0.23269 0.21183 0.62508 0.31692 0.87112 0.1055 0.24645 0.27731 0.59965 0.38239 0.78518 0.10466 0.18514 0.28189 0.47287 0.39406 0.63884 0.11176 0.16638 0.34027 0.46662 0.50749 0.6672 0.16763 0.20099 0.46162 0.51249 0.65303 0.69264 0.19182 0.17973 0.49414 0.43785 0.67178 0.57296 0.17806 0.13552 0.48872 0.34694 0.69097 0.46995 0.20183 0.12302 0.48372 0.28231 0.6255 0.35403 0.14178 0.0713 0.44327 0.20391 0.6697 0.29399 0.22685 0.0905 0.58922 0.21225 0.8052 0.27105 0.21642 0.0588 0.5396 0.13427 0.71807 0.16846 0.17806 0.0338 0.56295 0.0834 0.85485 0.10968 0.31275 0.0288 0.7335 0.0367 1.0254 0.02 0.27231-0.0159 0.67554-0.0555 0.89655-0.0888 0.22102-0.0329 0.60966-0.11551 0.86363-0.18348 0.25437-0.068 0.63592-0.18973 0.84817-0.27063 0.21226-0.0809 0.57255-0.24311 0.80063-0.36028 0.22852-0.11718 0.59548-0.33402 0.81607-0.48122 0.22018-0.1472 0.54503-0.38864 0.72183-0.53584 0.1764-0.14721 0.48081-0.43577 0.67596-0.64093 0.19557-0.20516 0.47747-0.53627 0.62675-0.73517 0.14929-0.19891 0.38948-0.55961 0.53376-0.8019 0.14429-0.24228 0.35362-0.65511 0.46454-0.91785 0.11134-0.26271 0.25895-0.66762 0.32818-0.89985 0.0688-0.23227 0.16429-0.62925 0.21142-0.88238 0.0572-0.30399 0.0938-0.7139 0.10842-1.2126 0.0137-0.46495 0.003-0.9195-0.0275-1.1884-0.0275-0.23935-0.088-0.61382-0.13428-0.83152-0.0467-0.2181-0.15678-0.61257-0.24477-0.87735-0.088-0.2648-0.2427-0.65886-0.3432-0.8757-0.10091-0.21684-0.29064-0.57087-0.422-0.78608-0.13135-0.21559-0.34569-0.53418-0.47621-0.70848-0.13094-0.17388-0.42451-0.51082-0.65344-0.74809-0.22852-0.23769-0.55669-0.54627-0.72975-0.68555-0.17264-0.13969-0.49498-0.37238-0.71641-0.51791-0.22101-0.14512-0.63384-0.37572-0.9174-0.51249-0.28314-0.13678-0.74017-0.32275-1.0154-0.41366-0.27522-0.0909-0.69723-0.20433-0.93825-0.25145-0.24061-0.0471-0.63218-0.10509-0.86985-0.12802-0.23727-0.0234-0.62217-0.0396-0.85485-0.0367zm-124.39 21.56c-0.20975 0.003-0.54044 0.0208-0.73517 0.0396-0.19516 0.0188-0.56087 0.0746-0.81315 0.12427-0.25271 0.0496-0.6843 0.16346-0.95955 0.2527-0.27522 0.0892-0.74852 0.28398-1.0513 0.43243-0.30316 0.14887-0.73475 0.3949-0.9591 0.5471-0.2247 0.1515-0.5487 0.39375-0.7209 0.537-0.17182 0.14325-0.47497 0.429-0.67342 0.63525-0.19808 0.2055-0.49088 0.5505-0.64973 0.76575s-0.37987 0.5415-0.4908 0.72525c-0.11134 0.18348-0.27605 0.49289-0.36613 0.68805-0.0905 0.19474-0.22017 0.50457-0.28815 0.68805-0.068 0.18348-0.17722 0.54127-0.24269 0.79523-0.0655 0.25353-0.14887 0.67179-0.18473 0.9291-0.0359 0.25896-0.065 0.7548-0.065 1.1104 0 0.35361 0.0283 0.85905 0.063 1.1234 0.0346 0.26438 0.1176 0.69222 0.18474 0.95078 0.0667 0.25896 0.1768 0.62049 0.24477 0.804 0.068 0.18348 0.19766 0.49289 0.28815 0.68805 0.0901 0.19473 0.25479 0.50457 0.36613 0.68805 0.11093 0.18348 0.33194 0.50999 0.49081 0.72516 0.15888 0.21559 0.45161 0.56003 0.64969 0.76605 0.19849 0.20599 0.50331 0.4933 0.67762 0.63884 0.17431 0.14553 0.50291 0.38906 0.72975 0.54127 0.22727 0.1522 0.65678 0.39656 0.9549 0.54293 0.29816 0.14595 0.74477 0.33318 0.99248 0.41491 0.24728 0.0822 0.66803 0.19474 0.9345 0.24978 0.26646 0.0554 0.75517 0.12344 1.0858 0.1518 0.47246 0.0401 0.73308 0.0401 1.213 0.00075 0.3361-0.028 0.83107-0.0959 1.0992-0.1518 0.26854-0.0554 0.69096-0.16846 0.93825-0.25061 0.24769-0.0817 0.6943-0.26855 0.99247-0.41491 0.29816-0.14595 0.71099-0.37698 0.9174-0.51291 0.20642-0.13553 0.54419-0.38781 0.7506-0.56003 0.20642-0.17223 0.52876-0.47539 0.71599-0.67388s0.46162-0.52208 0.60965-0.71974c0.14846-0.19724 0.38739-0.55669 0.53168-0.79897 0.14428-0.24228 0.35361-0.6551 0.46453-0.91785 0.11134-0.26271 0.25937-0.66804 0.32818-0.90075 0.0692-0.23311 0.16722-0.63968 0.21767-0.90323 0.078-0.40908 0.0913-0.62383 0.0913-1.4595 0-0.83566-0.0133-1.0504-0.0913-1.4595-0.0505-0.26396-0.14845-0.67012-0.21767-0.90322-0.0688-0.23268-0.21601-0.63634-0.32609-0.89655-0.11051-0.26021-0.30608-0.65135-0.43452-0.86903-0.12843-0.21809-0.34902-0.55753-0.48955-0.75517-0.14095-0.19725-0.42909-0.54336-0.64051-0.76853-0.21101-0.22518-0.55295-0.55044-0.75938-0.72224-0.20642-0.17222-0.54418-0.42409-0.7506-0.55961-0.20642-0.13595-0.61925-0.36696-0.9174-0.51333-0.29816-0.14679-0.76935-0.34069-1.0467-0.43118-0.27772-0.0905-0.70932-0.20308-0.9591-0.24978-0.2502-0.0467-0.64886-0.10425-0.88657-0.1276-0.23728-0.0234-0.6034-0.04-0.81315-0.0367zm21.282 0.0163c-0.35528-0.009-0.80565 0-1.0004 0.0204-0.19516 0.0204-0.56087 0.0776-0.81315 0.12719-0.25271 0.0496-0.6843 0.16388-0.95955 0.25354-0.27522 0.0897-0.73226 0.2748-1.0154 0.41157-0.28356 0.13678-0.69639 0.3678-0.9174 0.51291-0.22143 0.14553-0.54501 0.37947-0.71932 0.52-0.17389 0.14053-0.52125 0.46871-0.77145 0.72892-0.24978 0.26062-0.58046 0.65094-0.73434 0.86737-0.15387 0.21601-0.37697 0.56796-0.49581 0.78143-0.11885 0.2135-0.28565 0.55127-0.37113 0.7506-0.0855 0.19932-0.21476 0.53959-0.28773 0.75645-0.0726 0.21684-0.17973 0.62884-0.23769 0.91575-0.058 0.28648-0.11968 0.77063-0.13636 1.0759-0.0171 0.30483-0.0171 0.80355 0 1.1084 0.0167 0.30525 0.078 0.78856 0.13595 1.075 0.058 0.28607 0.18222 0.74477 0.27564 1.0196 0.0938 0.27481 0.28022 0.72475 0.41449 0.99998 0.13427 0.27522 0.3557 0.66928 0.49164 0.8757 0.13595 0.20641 0.36113 0.51583 0.49998 0.68805 0.13886 0.1718 0.44702 0.50082 0.68471 0.731s0.54461 0.50415 0.68222 0.60923c0.13761 0.10509 0.41366 0.29775 0.61341 0.42785 0.20016 0.1301 0.59422 0.34777 0.8757 0.48372 0.28189 0.13594 0.71515 0.31441 0.96285 0.39698 0.24728 0.0826 0.66845 0.19516 0.93577 0.25062 0.26688 0.0555 0.72141 0.12218 1.0091 0.14845 0.29524 0.0271 0.74184 0.0367 1.0241 0.0221 0.27522-0.0146 0.6868-0.0546 0.91493-0.0888 0.2281-0.0342 0.62216-0.11676 0.87615-0.18306 0.25395-0.0667 0.65844-0.19891 0.89902-0.29398 0.24061-0.0955 0.60632-0.26271 0.8127-0.37197 0.20642-0.10925 0.50749-0.28398 0.66929-0.38823 0.16138-0.10425 0.48163-0.34068 0.71182-0.52583 0.22977-0.18515 0.57212-0.49915 0.7602-0.69806 0.18848-0.19849 0.45578-0.50999 0.59422-0.69222 0.13844-0.18181 0.34236-0.47705 0.45328-0.65552 0.11092-0.17889 0.28522-0.49248 0.38781-0.69723 0.103-0.20475 0.25687-0.56003 0.34319-0.78937 0.0859-0.22935 0.20808-0.62342 0.2723-0.8757 0.0638-0.25229 0.14595-0.69014 0.18223-0.97328 0.0367-0.28314 0.0667-0.75517 0.0667-1.0492 0-0.29399-0.03-0.76605-0.0667-1.0492-0.0363-0.28314-0.11842-0.72099-0.18223-0.97327-0.0642-0.25229-0.18639-0.64635-0.2723-0.8757-0.0863-0.22935-0.24019-0.58463-0.34319-0.78938-0.10259-0.20474-0.27689-0.51832-0.38781-0.69722-0.11025-0.17625-0.318-0.47775-0.46125-0.6675-0.144-0.18975-0.46875-0.5535-0.72225-0.807-0.25425-0.2535-0.61725-0.57825-0.807-0.72225-0.18975-0.14325-0.49125-0.351-0.66975-0.462s-0.47325-0.276-0.6555-0.36675c-0.18225-0.0908-0.50925-0.2355-0.72675-0.32175-0.21825-0.0855-0.60375-0.21-0.858-0.276-0.2535-0.0668-0.64725-0.14925-0.87525-0.1845-0.228-0.0352-0.705-0.072-1.0612-0.0817zm20.186-0.0167c-0.21976 0.003-0.54961 0.0213-0.73309 0.04-0.18348 0.0188-0.45536 0.0555-0.60465 0.0813-0.14887 0.0259-0.47872 0.10134-0.73225 0.16722-0.25354 0.0659-0.67554 0.206-0.93825 0.31109-0.26229 0.1055-0.63635 0.27772-0.83153 0.38281-0.19474 0.10508-0.49498 0.28606-0.6672 0.40157-0.1718 0.11551-0.4441 0.31275-0.60465 0.43868-0.16054 0.12552-0.47955 0.41783-0.7089 0.64927-0.22935 0.23143-0.55044 0.59881-0.71307 0.8169-0.16263 0.21767-0.39281 0.55795-0.51082 0.75517-0.11843 0.19766-0.30191 0.54502-0.40783 0.77145-0.10634 0.22685-0.26354 0.628-0.35028 0.89198-0.0863 0.26354-0.19557 0.67637-0.24311 0.9174-0.0475 0.24061-0.10551 0.62008-0.12927 0.84278-0.0238 0.22267-0.0434 0.59422-0.0434 0.82522 0 0.23102 0.0196 0.60256 0.0434 0.82522 0.0238 0.22269 0.0817 0.60174 0.12927 0.84278 0.0475 0.24061 0.15679 0.65344 0.24311 0.9174 0.0867 0.26354 0.24394 0.66511 0.35028 0.89197 0.10591 0.22644 0.28939 0.5738 0.40783 0.77146 0.11801 0.19724 0.34819 0.53709 0.51082 0.75517 0.16263 0.21767 0.48372 0.58547 0.71307 0.8169 0.22935 0.23144 0.55002 0.52542 0.71224 0.65302 0.16221 0.12761 0.47204 0.3482 0.68805 0.4904 0.21601 0.14219 0.59923 0.35778 0.85155 0.47913 0.25228 0.12135 0.61841 0.27773 0.81315 0.3482 0.19516 0.07 0.4954 0.16554 0.6672 0.21183 0.17222 0.0467 0.46287 0.11343 0.64635 0.14804 0.18348 0.035 0.59172 0.0859 0.90742 0.113 0.44202 0.0379 0.71516 0.0379 1.1884 0 0.33819-0.0271 0.84023-0.0955 1.1163-0.1522 0.27606-0.0567 0.72642-0.18015 1.0008-0.27481 0.27439-0.0947 0.72267-0.28355 0.99578-0.42033 0.27313-0.13636 0.66511-0.36112 0.87113-0.49873 0.20558-0.13761 0.5079-0.35987 0.67094-0.49331 0.16305-0.13386 0.44411-0.39115 0.62467-0.57171 0.18057-0.18057 0.43619-0.45995 0.56795-0.6205 0.13178-0.16096 0.34611-0.45161 0.4758-0.64635 0.13011-0.19474 0.33944-0.55544 0.46538-0.80145 0.12635-0.24603 0.29273-0.61216 0.3703-0.81315 0.0776-0.20099 0.1889-0.54419 0.24811-0.76185 0.0588-0.21809 0.13553-0.54627 0.17055-0.72975 0.035-0.18348 0.0838-0.59172 0.10884-0.90697 0.0321-0.41158 0.0321-0.73518 0-1.1468-0.025-0.31526-0.0734-0.72016-0.10759-0.89948-0.0346-0.17931-0.10174-0.47955-0.1497-0.6672-0.0475-0.18765-0.15303-0.51959-0.23393-0.73726-0.0813-0.21809-0.25729-0.61216-0.39157-0.8757-0.13427-0.26396-0.35028-0.63884-0.48038-0.83355-0.12969-0.19473-0.34444-0.48663-0.47704-0.64843-0.13219-0.16221-0.41617-0.46913-0.63051-0.68263-0.21392-0.21309-0.5592-0.51541-0.76687-0.67179-0.20725-0.15637-0.53585-0.38072-0.72975-0.49915-0.19391-0.11842-0.525-0.29773-0.73643-0.39865-0.211-0.10133-0.60048-0.25896-0.86572-0.35028-0.2648-0.0913-0.70181-0.21225-0.97117-0.26855-0.26939-0.0563-0.69473-0.12259-0.94493-0.1472-0.25062-0.0246-0.63551-0.0425-0.85485-0.0396zm20.728 0c-0.22101 0.003-0.56129 0.0221-0.75645 0.0421-0.19474 0.02-0.55127 0.0755-0.7923 0.12344-0.24061 0.048-0.64426 0.15346-0.89655 0.23435-0.25229 0.0809-0.64176 0.22852-0.86573 0.32735-0.22351 0.0992-0.58505 0.28522-0.80272 0.41325-0.21767 0.12802-0.58547 0.37572-0.81645 0.55002-0.23144 0.1743-0.61174 0.50665-0.84488 0.73851-0.23309 0.23226-0.56837 0.61424-0.74517 0.84945-0.17681 0.23477-0.42659 0.60548-0.55461 0.82312-0.12802 0.21768-0.31401 0.57922-0.41325 0.80273-0.0988 0.22393-0.24687 0.61341-0.32818 0.86572-0.0813 0.25229-0.18723 0.65469-0.23519 0.89445-0.048 0.23936-0.10967 0.7039-0.13677 1.0321-0.0379 0.46078-0.0379 0.73308 0.00041 1.1993 0.0275 0.33193 0.0976 0.82898 0.15596 1.1046 0.0584 0.27605 0.17889 0.71307 0.26813 0.97118 0.0897 0.25813 0.23144 0.61966 0.31526 0.80317 0.0838 0.18348 0.25479 0.50708 0.37947 0.71933 0.1251 0.21225 0.37196 0.57837 0.54877 0.81315 0.17723 0.23518 0.5004 0.60548 0.71807 0.82357 0.2181 0.2181 0.55878 0.52292 0.75683 0.67805 0.19849 0.1547 0.52417 0.38405 0.72391 0.50957 0.19933 0.1251 0.55795 0.32276 0.7965 0.4391 0.23811 0.11592 0.66095 0.28689 0.93953 0.3803 0.27814 0.093 0.71473 0.21351 0.96952 0.26814 0.25479 0.0542 0.74018 0.12217 1.0788 0.15053 0.48414 0.0404 0.7456 0.0404 1.2235 0.00075 0.33402-0.0275 0.79815-0.0892 1.0312-0.13719 0.2331-0.0479 0.6305-0.15346 0.88275-0.23435 0.25229-0.0809 0.63718-0.22518 0.85485-0.32109 0.2181-0.0955 0.57921-0.28148 0.80273-0.41325 0.22393-0.13177 0.59922-0.38406 0.834-0.56087 0.23518-0.1768 0.61716-0.51208 0.84945-0.74518 0.23185-0.23309 0.5642-0.61341 0.73851-0.84487 0.17431-0.23102 0.41908-0.59423 0.54418-0.80648 0.12468-0.21224 0.29565-0.53584 0.37947-0.71932 0.0838-0.18348 0.2256-0.54502 0.31525-0.80317 0.0892-0.25812 0.20975-0.69514 0.26813-0.97118 0.0583-0.27564 0.12844-0.77273 0.15596-1.1046 0.0388-0.46788 0.0388-0.73809 0-1.206-0.0275-0.33193-0.0976-0.82898-0.15596-1.1046-0.0584-0.27605-0.17889-0.71307-0.26813-0.97118-0.0897-0.25812-0.23144-0.61966-0.31525-0.80317-0.0838-0.18348-0.25479-0.50708-0.37947-0.71933-0.1251-0.21225-0.36987-0.57545-0.54418-0.80647-0.17431-0.23144-0.50666-0.61174-0.73851-0.84487-0.23227-0.23352-0.62383-0.57589-0.87113-0.76103-0.24686-0.18514-0.6526-0.45328-0.90157-0.59589-0.24896-0.14261-0.67554-0.34903-0.94785-0.45912-0.2723-0.10967-0.67346-0.24895-0.89153-0.309-0.21767-0.06-0.54627-0.13803-0.72975-0.17264-0.18348-0.035-0.52792-0.0826-0.7656-0.10591-0.23727-0.0229-0.61257-0.0396-0.834-0.0367zm20.182 0c-0.22101 0.003-0.56128 0.0221-0.75645 0.0417-0.19516 0.02-0.55086 0.0751-0.79103 0.1226-0.23977 0.0471-0.64343 0.15262-0.89655 0.23435-0.2527 0.0813-0.63801 0.22644-0.85612 0.32235-0.21767 0.0955-0.57921 0.28147-0.80273 0.41324-0.22392 0.13178-0.59922 0.38406-0.834 0.56087-0.23477 0.17723-0.61632 0.50957-0.84735 0.73892-0.23102 0.22935-0.56169 0.60757-0.73475 0.84023-0.17347 0.23268-0.40908 0.58005-0.52417 0.77145-0.11468 0.1914-0.25062 0.43117-0.30149 0.53292-0.0513 0.10134-0.17681 0.3924-0.27939 0.64635s-0.24853 0.70557-0.32485 1.0037c-0.0763 0.29816-0.16346 0.72016-0.1939 0.93825-0.0305 0.21767-0.0546 0.73392-0.0542 1.1468 0.00042 0.49581 0.0251 0.90652 0.0722 1.2093 0.0392 0.25229 0.11842 0.63676 0.1768 0.85485 0.058 0.21767 0.16347 0.55544 0.23394 0.7506 0.0701 0.19474 0.22727 0.56086 0.34903 0.81315 0.12135 0.25228 0.35195 0.65552 0.5125 0.89655 0.16012 0.24061 0.44368 0.61967 0.63008 0.84195 0.18599 0.22226 0.49957 0.54752 0.69681 0.72308 0.19682 0.17514 0.50999 0.43118 0.69556 0.56879 0.18598 0.13761 0.51207 0.35319 0.72516 0.4783 0.21309 0.12552 0.57046 0.30899 0.79395 0.40824 0.22393 0.0988 0.61341 0.24687 0.86572 0.32818 0.25229 0.0813 0.65469 0.18723 0.89445 0.23518 0.23936 0.0479 0.7039 0.10968 1.0321 0.13678 0.46078 0.038 0.73309 0.038 1.1993-0.00041 0.33193-0.0275 0.82898-0.0976 1.1046-0.15596 0.27606-0.0584 0.71391-0.17931 0.97373-0.26855 0.25937-0.0897 0.61633-0.22851 0.79312-0.309 0.1764-0.0809 0.49915-0.25145 0.71683-0.37947 0.21767-0.12801 0.58338-0.37404 0.81233-0.54668 0.22893-0.17222 0.59422-0.4904 0.8115-0.7064 0.21767-0.21642 0.50665-0.53293 0.64218-0.70348 0.13594-0.17055 0.35361-0.47246 0.48414-0.67095 0.13051-0.19808 0.34902-0.58213 0.48496-0.8532 0.13637-0.27063 0.33027-0.74309 0.43118-1.05 0.10092-0.30649 0.22351-0.76395 0.27231-1.0162 0.0492-0.25229 0.11008-0.71682 0.13593-1.0321 0.035-0.42534 0.035-0.72141 0-1.1468-0.0259-0.31526-0.0867-0.77978-0.13593-1.0321-0.0488-0.25228-0.17139-0.70973-0.27231-1.0162-0.10091-0.30692-0.29481-0.7794-0.43118-1.05-0.13594-0.27105-0.35445-0.65511-0.48496-0.8532-0.13053-0.19849-0.3482-0.5004-0.48414-0.67095-0.13553-0.17055-0.42451-0.48706-0.64218-0.70348-0.21726-0.21601-0.58255-0.53418-0.8115-0.70639-0.22893-0.17264-0.59923-0.42117-0.82313-0.55295-0.22351-0.13177-0.58463-0.31775-0.80272-0.41325-0.21768-0.0959-0.60257-0.24061-0.85485-0.32151-0.25229-0.0809-0.65553-0.1864-0.89655-0.23394-0.24061-0.0479-0.63218-0.10591-0.86985-0.12885-0.23727-0.0233-0.61257-0.0396-0.834-0.0367zm20.99 0.00083c-0.20642 0.003-0.4316 0.0129-0.5004 0.0208-0.0688 0.008-0.30316 0.035-0.52125 0.06-0.21767 0.025-0.6401 0.10759-0.93825 0.1839-0.29816 0.0759-0.73892 0.21642-0.97995 0.31192-0.24061 0.0955-0.61591 0.26814-0.834 0.38406-0.21767 0.11593-0.53668 0.30441-0.7089 0.41909-0.1718 0.11467-0.48497 0.34777-0.69556 0.51791-0.21016 0.17014-0.53751 0.47246-0.72683 0.67262-0.18932 0.19974-0.48122 0.5471-0.64885 0.77228-0.16763 0.22476-0.3778 0.53418-0.46704 0.68805-0.0892 0.15345-0.23728 0.42909-0.3286 0.61257-0.0917 0.18348-0.23727 0.52125-0.32317 0.7506s-0.20808 0.62341-0.2723 0.8757c-0.0638 0.25228-0.14595 0.69013-0.18223 0.97327-0.0367 0.28315-0.0668 0.75518-0.0668 1.0492 0 0.29398 0.03 0.76605 0.0668 1.0492 0.0363 0.28314 0.11842 0.72099 0.18223 0.97328 0.0642 0.25228 0.18639 0.64635 0.2723 0.8757 0.0863 0.22935 0.24019 0.58463 0.34319 0.78937 0.10258 0.20474 0.27689 0.51833 0.38781 0.69722 0.11092 0.17848 0.31484 0.47372 0.45328 0.65553 0.13844 0.18222 0.40407 0.49165 0.59005 0.68805 0.18557 0.19641 0.51 0.49581 0.72016 0.66595 0.21059 0.17013 0.52376 0.40324 0.69556 0.51792 0.17222 0.11467 0.49123 0.30315 0.7089 0.41908 0.21809 0.11592 0.58505 0.28564 0.81562 0.37696 0.23102 0.0913 0.59715 0.21434 0.81315 0.27314 0.21642 0.0588 0.54377 0.13552 0.72725 0.17055 0.18348 0.035 0.59797 0.0859 0.9207 0.11301 0.44494 0.0371 0.7285 0.0375 1.1676 0.002 0.31942-0.0259 0.78607-0.0872 1.0371-0.13594 0.25103-0.0484 0.68263-0.16264 0.9591-0.25312 0.27647-0.0909 0.73309-0.27606 1.015-0.41241 0.28148-0.13595 0.67554-0.35404 0.8757-0.48414 0.19975-0.13011 0.4758-0.32193 0.61341-0.42618s0.44411-0.37863 0.68138-0.60924c0.23686-0.23101 0.55837-0.57963 0.71391-0.77437 0.15553-0.19516 0.38071-0.50457 0.50081-0.68805 0.11968-0.18348 0.32735-0.55878 0.46162-0.834 0.13386-0.27522 0.30232-0.66929 0.37405-0.8757 0.0717-0.20642 0.17514-0.55378 0.23019-0.77145 0.0554-0.21809 0.1301-0.59339 0.16638-0.834 0.0409-0.2723 0.0659-0.7139 0.0659-1.1676s-0.0251-0.89527-0.0659-1.1676c-0.0363-0.24103-0.11092-0.61633-0.16638-0.834-0.055-0.21809-0.15846-0.56504-0.23019-0.77145-0.0717-0.20642-0.24019-0.60048-0.37405-0.8757-0.13427-0.27522-0.34194-0.65052-0.46203-0.834-0.1201-0.18348-0.30441-0.44619-0.4095-0.5838-0.10466-0.13761-0.38822-0.45411-0.63008-0.70348-0.24145-0.24937-0.58923-0.57045-0.77273-0.7139-0.18348-0.14345-0.49706-0.36738-0.69681-0.49706-0.20016-0.13011-0.59422-0.34778-0.8757-0.48372-0.28189-0.13636-0.7385-0.32151-1.015-0.41241-0.27648-0.0905-0.7014-0.20308-0.94448-0.2502-0.24269-0.0467-0.6451-0.10425-0.89407-0.12802-0.24896-0.0238-0.62175-0.04-0.82815-0.0367zm21.016-0.00042c-0.20642 0.003-0.53459 0.0208-0.72933 0.0396-0.19516 0.0188-0.56087 0.0746-0.81315 0.12427-0.25271 0.0496-0.6843 0.16346-0.95955 0.2527-0.27522 0.0892-0.74435 0.28231-1.0425 0.42868-0.29816 0.14678-0.72767 0.39115-0.9549 0.54335-0.22685 0.15221-0.55961 0.39907-0.73892 0.54878-0.17931 0.14928-0.50457 0.4612-0.72267 0.69222-0.21809 0.23143-0.51416 0.58671-0.65802 0.78937-0.14387 0.20308-0.36029 0.53334-0.48081 0.73434-0.12051 0.20099-0.31358 0.58838-0.42867 0.86107-0.11509 0.27272-0.26604 0.68555-0.33485 0.9174-0.0688 0.23186-0.16639 0.63718-0.21684 0.90113-0.078 0.40908-0.0913 0.62383-0.0913 1.4595 0 0.83566 0.0134 1.0504 0.0913 1.4595 0.0505 0.26354 0.14845 0.67011 0.21767 0.90322 0.0688 0.23268 0.21601 0.63634 0.3261 0.89655 0.1105 0.26021 0.30608 0.65093 0.43451 0.86903 0.12844 0.21767 0.34987 0.55878 0.49165 0.75765 0.14178 0.19932 0.43534 0.55002 0.65218 0.7794 0.21643 0.22976 0.54044 0.54042 0.71975 0.68971 0.17931 0.1497 0.51207 0.39657 0.73892 0.54919 0.22726 0.1522 0.65677 0.39615 0.9549 0.5421 0.29815 0.14554 0.74851 0.33277 1.0008 0.41575 0.25228 0.083 0.67471 0.19599 0.93825 0.25145 0.26396 0.055 0.75517 0.1226 1.0917 0.15054 0.4783 0.0392 0.74059 0.0392 1.1997 0 0.32317-0.0275 0.78772-0.0888 1.0329-0.13636 0.24478-0.0471 0.67137-0.15971 0.94785-0.24979 0.27647-0.0905 0.74643-0.28397 1.0446-0.43076 0.29815-0.14636 0.71098-0.37738 0.9174-0.51332 0.20641-0.13553 0.5446-0.38781 0.75142-0.56003 0.20725-0.17264 0.55003-0.49957 0.7623-0.72684 0.21225-0.22767 0.50666-0.58254 0.65386-0.789 0.14762-0.20641 0.35779-0.52542 0.46704-0.7089 0.10967-0.18348 0.29941-0.56628 0.422-0.8511 0.1226-0.28439 0.28482-0.73475 0.36113-1.0008 0.0763-0.26562 0.17305-0.67095 0.21517-0.9003 0.0601-0.32776 0.0767-0.62633 0.0767-1.397 0-0.77061-0.0166-1.0692-0.0767-1.397-0.0421-0.22935-0.13845-0.633-0.21434-0.89655-0.0759-0.26396-0.23311-0.70473-0.34945-0.97995-0.11676-0.27522-0.31066-0.66469-0.43117-0.86572-0.12052-0.20099-0.33861-0.53334-0.48414-0.73892-0.14595-0.20558-0.46079-0.57963-0.70014-0.83152-0.23936-0.25146-0.59882-0.58755-0.79853-0.74643-0.19974-0.15888-0.52667-0.39532-0.72642-0.525-0.20016-0.13011-0.59422-0.34778-0.8757-0.48372-0.28188-0.13636-0.7385-0.32151-1.015-0.41241-0.27647-0.0905-0.70139-0.20308-0.94448-0.2502-0.24269-0.0467-0.64509-0.10425-0.89407-0.12802-0.24896-0.0238-0.62175-0.0405-0.82815-0.0371zm-124.1 21.579c-0.34402-0.01-0.7848-0.002-0.97995 0.0188-0.19474 0.02-0.47621 0.058-0.6255 0.0842-0.14887 0.0263-0.48289 0.103-0.74184 0.17014-0.25896 0.0676-0.66261 0.19849-0.89655 0.29148-0.23435 0.093-0.60173 0.26104-0.81645 0.37364-0.21476 0.11258-0.54335 0.3069-0.72975 0.432-0.1864 0.12469-0.49289 0.35111-0.68138 0.50249-0.18807 0.15137-0.53167 0.47663-0.76267 0.72224-0.23144 0.24562-0.54085 0.61549-0.68805 0.82192-0.1472 0.20642-0.38072 0.57213-0.51833 0.81316-0.13761 0.24102-0.34403 0.6722-0.45828 0.95909-0.11468 0.28648-0.26522 0.74226-0.33486 1.0125-0.0692 0.2698-0.15471 0.70723-0.18931 0.97163-0.0346 0.26437-0.063 0.7698-0.063 1.1234 0 0.35571 0.0292 0.85155 0.0651 1.1104 0.0359 0.25729 0.11927 0.67555 0.18474 0.92911 0.0655 0.25394 0.1693 0.60005 0.2306 0.76934 0.0613 0.1693 0.19057 0.47913 0.28773 0.68805 0.0972 0.20934 0.28398 0.5567 0.41534 0.7719 0.13135 0.2156 0.34568 0.53418 0.47621 0.70807 0.13093 0.17389 0.41366 0.49999 0.62884 0.72433 0.21558 0.22435 0.56252 0.54627 0.77144 0.71557 0.20934 0.16931 0.54377 0.41367 0.74352 0.54336 0.20016 0.12927 0.59422 0.34694 0.8757 0.48288 0.28189 0.13636 0.73767 0.32109 1.0129 0.41116 0.27522 0.0901 0.69765 0.20267 0.93825 0.2502 0.24061 0.0476 0.63218 0.10592 0.86985 0.12927 0.23727 0.0238 0.58714 0.043 0.7773 0.043s0.54002-0.0192 0.7773-0.043c0.23769-0.0233 0.62925-0.0817 0.86985-0.12927 0.24103-0.0476 0.66303-0.16012 0.93825-0.2502 0.27522-0.0901 0.73101-0.2748 1.0129-0.41116 0.28147-0.13594 0.67554-0.35361 0.8757-0.48372 0.19974-0.12969 0.52542-0.36529 0.72391-0.52292 0.19808-0.15804 0.55461-0.48997 0.7923-0.73767 0.23727-0.2477 0.55378-0.623 0.70265-0.83317 0.14928-0.21059 0.36988-0.54711 0.49039-0.7481 0.12051-0.201 0.31359-0.58839 0.42868-0.86107 0.11509-0.27273 0.26605-0.68556 0.33485-0.9174 0.0688-0.23186 0.16638-0.6376 0.21684-0.90113 0.078-0.40949 0.0913-0.62258 0.0909-1.4595-0.00041-0.75855-0.0171-1.0676-0.0734-1.367-0.0405-0.21267-0.12051-0.56837-0.17805-0.7902-0.058-0.22184-0.17889-0.59214-0.26897-0.82275-0.0905-0.23101-0.25103-0.58838-0.35695-0.7944-0.10592-0.20641-0.29607-0.53459-0.42243-0.72933-0.12635-0.19516-0.36821-0.52584-0.53793-0.73517-0.1693-0.20975-0.48205-0.54752-0.69472-0.7506-0.21309-0.2035-0.53084-0.47788-0.70682-0.61049-0.17556-0.13218-0.46704-0.33193-0.6476-0.44369-0.18056-0.11175-0.48622-0.28314-0.67971-0.38071-0.19348-0.0972-0.54252-0.24854-0.7752-0.33611-0.23269-0.0876-0.61382-0.20725-0.84735-0.26646-0.2331-0.0593-0.60548-0.13511-0.82777-0.16888-0.22185-0.0337-0.68514-0.0697-1.0292-0.0792zm20.725-0.0175c-0.18348 0.003-0.50249 0.0213-0.7089 0.0404-0.20641 0.0196-0.58172 0.0755-0.834 0.12468-0.25229 0.0487-0.68388 0.16222-0.9591 0.25146-0.27522 0.0892-0.74434 0.2823-1.0425 0.42868-0.29816 0.14678-0.69222 0.36487-0.8757 0.48455-0.18348 0.1201-0.45536 0.31316-0.60465 0.42992-0.14887 0.11635-0.44702 0.38114-0.66261 0.58881-0.21518 0.20725-0.53627 0.55794-0.7139 0.77895-0.17723 0.22101-0.43118 0.57754-0.5642 0.7923-0.13302 0.21475-0.3311 0.57796-0.43994 0.8073-0.10884 0.22935-0.25688 0.58589-0.32943 0.7923-0.0721 0.20641-0.17597 0.55378-0.23102 0.77145-0.0555 0.21767-0.1301 0.59297-0.16638 0.834-0.04 0.26396-0.0667 0.71932-0.0675 1.1468-0.00083 0.38989 0.0204 0.8682 0.0467 1.0634 0.0263 0.19474 0.0863 0.53293 0.13302 0.7506 0.0467 0.21767 0.15013 0.59297 0.23019 0.834 0.0801 0.24103 0.26396 0.6818 0.40824 0.97995 0.14469 0.29815 0.37404 0.71099 0.5104 0.9174 0.13636 0.20642 0.36154 0.51583 0.5004 0.68805 0.13928 0.1718 0.45662 0.50999 0.70556 0.75142 0.24895 0.24103 0.59381 0.54252 0.7656 0.66971 0.17223 0.12676 0.43785 0.30858 0.59089 0.40407 0.15304 0.0955 0.48206 0.27605 0.73142 0.40157 0.24937 0.12552 0.70598 0.31192 1.0145 0.4145 0.30858 0.10258 0.75855 0.2256 0.99915 0.27272 0.24103 0.0476 0.63218 0.1055 0.86985 0.12885 0.23727 0.0238 0.58714 0.043 0.7773 0.043s0.54002-0.02 0.7773-0.0442c0.23769-0.0242 0.62801-0.0822 0.86775-0.12802 0.23936-0.0463 0.66178-0.15846 0.93825-0.24937 0.27647-0.0905 0.7089-0.26437 0.9612-0.38572 0.25229-0.12134 0.61299-0.3165 0.80145-0.43368 0.18848-0.11717 0.49832-0.33026 0.68805-0.47371 0.18974-0.14345 0.55336-0.46871 0.80775-0.72224 0.25437-0.25354 0.6059-0.65469 0.78143-0.89115 0.17556-0.23602 0.39198-0.55502 0.48121-0.7089 0.0892-0.15345 0.24228-0.43868 0.33986-0.63342 0.098-0.19516 0.25186-0.56087 0.34194-0.81315 0.0901-0.25229 0.20892-0.64635 0.26396-0.8757 0.0546-0.22935 0.12844-0.63843 0.16346-0.90908 0.035-0.27063 0.0638-0.7335 0.0638-1.0283 0-0.29482-0.03-0.7677-0.0667-1.0508-0.0363-0.28314-0.11842-0.72099-0.18222-0.97327-0.0642-0.25229-0.1864-0.64635-0.27231-0.8757-0.0863-0.22935-0.24019-0.58463-0.34319-0.78938-0.10259-0.20474-0.27981-0.52291-0.39406-0.70722-0.11426-0.18432-0.32693-0.48748-0.47288-0.6743-0.14595-0.18681-0.40783-0.49164-0.58255-0.6772-0.17472-0.18557-0.49039-0.47705-0.70098-0.64761-0.211-0.17013-0.52416-0.40365-0.69639-0.51791-0.1718-0.11467-0.47371-0.29482-0.67011-0.40115-0.19683-0.10592-0.53835-0.26605-0.75855-0.3557-0.22059-0.0901-0.56629-0.21184-0.76853-0.27105-0.20224-0.0593-0.54544-0.14429-0.7635-0.18891-0.21767-0.0451-0.61174-0.10133-0.8757-0.12551-0.26354-0.0242-0.62967-0.0413-0.81315-0.0384zm20.46 0c-0.19808 0.003-0.51666 0.0205-0.70724 0.0392-0.19098 0.0184-0.54918 0.0721-0.79559 0.11925-0.24646 0.0471-0.66178 0.15346-0.9228 0.23603-0.26105 0.0826-0.65886 0.23185-0.88366 0.33151-0.22476 0.0997-0.58171 0.28314-0.79395 0.40783-0.21183 0.1251-0.5496 0.34819-0.75059 0.49664-0.201 0.14804-0.52376 0.41325-0.71641 0.58881-0.19308 0.17597-0.49665 0.49289-0.67429 0.70473-0.17765 0.21183-0.45328 0.58213-0.61216 0.82313-0.15929 0.24102-0.39823 0.66303-0.53125 0.93825s-0.30858 0.69722-0.38948 0.93825c-0.0813 0.24102-0.18765 0.61632-0.23644 0.834-0.0484 0.21767-0.11425 0.61174-0.14637 0.8757-0.0317 0.26354-0.0584 0.68221-0.0592 0.92947-0.00082 0.24728 0.0183 0.63218 0.0421 0.85485 0.0238 0.22268 0.0817 0.60173 0.12928 0.84278 0.0475 0.24102 0.1572 0.65469 0.24394 0.91987 0.0867 0.26521 0.25437 0.6868 0.37238 0.93698 0.11843 0.25061 0.30191 0.59631 0.40824 0.76897 0.10634 0.17264 0.31984 0.48289 0.47455 0.6893 0.15429 0.20642 0.41449 0.52 0.57796 0.69681 0.16389 0.17681 0.46621 0.46245 0.67179 0.63509 0.206 0.17264 0.54085 0.42618 0.74477 0.56337 0.20433 0.13719 0.54627 0.34236 0.76057 0.45661 0.21434 0.11385 0.58089 0.28273 0.81526 0.37572 0.23393 0.0926 0.63758 0.22476 0.89654 0.29357 0.25896 0.0688 0.65845 0.15679 0.88778 0.19599 0.29107 0.0496 0.66303 0.0717 1.2302 0.073 0.57463 0.002 0.9495-0.0196 1.2781-0.0709 0.25603-0.0401 0.69847-0.13636 0.98324-0.21475 0.28482-0.078 0.75105-0.24229 1.0363-0.36488 0.28481-0.1226 0.70098-0.3311 0.92453-0.46329 0.22392-0.13219 0.58963-0.3778 0.81314-0.54627 0.22352-0.16847 0.5763-0.47413 0.78353-0.67929 0.20725-0.20516 0.49123-0.51249 0.6305-0.68346 0.13928-0.17056 0.35987-0.46913 0.48956-0.66387 0.1301-0.19474 0.34611-0.57004 0.48038-0.83355 0.13427-0.26396 0.31024-0.65803 0.39156-0.8757 0.0809-0.21767 0.1864-0.54961 0.23394-0.73726 0.048-0.18765 0.11509-0.48706 0.14929-0.66553 0.0338-0.17847 0.0821-0.5692 0.10633-0.8682 0.0246-0.29898 0.0329-0.74058 0.0183-0.9816s-0.0621-0.66303-0.1055-0.93825-0.13511-0.70014-0.20391-0.9441c-0.0688-0.24394-0.18182-0.5863-0.25103-0.76065-0.0696-0.17472-0.21309-0.49122-0.31943-0.70347-0.10591-0.21225-0.29649-0.54544-0.42325-0.74018-0.12635-0.19516-0.31609-0.46704-0.42117-0.60465-0.10509-0.13761-0.37905-0.44494-0.60924-0.68263-0.23019-0.23811-0.54961-0.54001-0.71015-0.67095-0.16055-0.13136-0.4512-0.34653-0.64636-0.4783-0.19473-0.13136-0.61132-0.36654-0.9249-0.5225-0.31358-0.15554-0.80437-0.35946-1.09-0.45328-0.28606-0.0934-0.72349-0.20767-0.97245-0.25437-0.24894-0.0467-0.64718-0.10383-0.88485-0.12719-0.23727-0.0233-0.5938-0.0401-0.7923-0.0367zm20.725-0.00041c-0.19808 0.003-0.51959 0.0217-0.71474 0.0412-0.19473 0.0196-0.56086 0.0755-0.81314 0.12426-0.25229 0.0484-0.71182 0.17223-1.0217 0.27439-0.30941 0.10217-0.78562 0.29816-1.0575 0.43493-0.27188 0.13678-0.65343 0.3532-0.84772 0.48122-0.19433 0.12802-0.49164 0.34277-0.66011 0.47663-0.16889 0.13428-0.4783 0.41617-0.68722 0.62676-0.20892 0.21016-0.50082 0.53751-0.64886 0.72682-0.14803 0.18932-0.37155 0.50791-0.49706 0.70765-0.1251 0.19932-0.32026 0.55336-0.43368 0.78608-0.11342 0.23268-0.28231 0.64342-0.3753 0.9132-0.093 0.2698-0.21642 0.71599-0.2748 0.99202-0.0584 0.27564-0.12843 0.77273-0.15595 1.1046-0.0384 0.46621-0.0384 0.73851-0.00042 1.1993 0.0271 0.32818 0.0884 0.79275 0.13594 1.0321 0.0476 0.23978 0.17056 0.68889 0.27314 0.9987 0.103 0.30942 0.28898 0.77018 0.41366 1.0238 0.12427 0.25311 0.35612 0.65635 0.515 0.89654 0.15929 0.23978 0.43868 0.61425 0.62133 0.8319 0.18265 0.21768 0.48914 0.53877 0.68179 0.71265 0.19224 0.17431 0.50415 0.43077 0.69306 0.57005 0.18848 0.13927 0.49831 0.34652 0.68805 0.46037 0.18973 0.11384 0.42784 0.24894 0.52959 0.29981 0.10133 0.0513 0.3924 0.17682 0.64635 0.27939 0.25395 0.10259 0.70556 0.24854 1.0037 0.32485 0.29816 0.0763 0.72058 0.16347 0.93825 0.19349 0.21809 0.0305 0.72475 0.055 1.1259 0.055 0.40157 0 0.90825-0.0246 1.1259-0.055 0.21809-0.03 0.64009-0.11676 0.93825-0.19265 0.29815-0.0763 0.73934-0.21642 0.97995-0.31192 0.24103-0.0955 0.59505-0.25687 0.7869-0.35862 0.19182-0.10134 0.52959-0.30399 0.7506-0.44994s0.58339-0.41825 0.80565-0.60507c0.22226-0.18723 0.54752-0.50123 0.72308-0.69848 0.17514-0.19682 0.43118-0.50999 0.56879-0.69556 0.13761-0.18597 0.35028-0.50748 0.47246-0.71515 0.12218-0.20725 0.29065-0.52708 0.37447-0.71056 0.0838-0.18349 0.22559-0.54502 0.31524-0.80318 0.0892-0.25812 0.20975-0.69514 0.26813-0.97117 0.0584-0.27565 0.12844-0.77273 0.15597-1.1038 0.0388-0.47246 0.0383-0.736-0.001-1.2184-0.0284-0.33861-0.0963-0.82403-0.15053-1.0788-0.0546-0.25478-0.1739-0.6868-0.26522-0.95993-0.0913-0.27313-0.25103-0.6747-0.35528-0.89197-0.10384-0.21726-0.28064-0.5471-0.3924-0.73225s-0.33902-0.5175-0.50457-0.73767c-0.16597-0.2206-0.4954-0.59631-0.73267-0.83445-0.23727-0.23853-0.62133-0.57672-0.85358-0.75143-0.23226-0.17514-0.60047-0.42325-0.81817-0.55127-0.21768-0.12802-0.57922-0.314-0.80272-0.41325-0.22394-0.0988-0.61341-0.24686-0.86573-0.32818-0.25228-0.0813-0.66511-0.1864-0.9174-0.23352-0.25228-0.0476-0.65302-0.10508-0.8907-0.12844-0.23727-0.0233-0.5938-0.0401-0.7923-0.0371zm20.182 0.00041c-0.19808 0.003-0.51666 0.0205-0.70723 0.0392-0.19099 0.0184-0.55711 0.0734-0.81315 0.12218-0.25645 0.0492-0.71932 0.17347-1.0292 0.27646-0.30983 0.10301-0.78397 0.29816-1.0538 0.43327-0.27022 0.13553-0.62675 0.3336-0.7923 0.44035-0.16596 0.10717-0.46078 0.31859-0.65594 0.4708-0.19474 0.15178-0.53251 0.45411-0.7506 0.6722-0.21767 0.21809-0.54085 0.58839-0.71807 0.82357-0.17682 0.23478-0.42659 0.60548-0.55461 0.82313-0.12802 0.21768-0.29482 0.53209-0.3703 0.69847-0.0759 0.16639-0.19599 0.46204-0.2673 0.6572-0.0717 0.19474-0.17764 0.53292-0.2356 0.7506-0.0584 0.21767-0.13761 0.60256-0.17681 0.85485-0.0471 0.30274-0.0717 0.71349-0.0721 1.2093-0.00041 0.41283 0.0238 0.9291 0.0542 1.1468 0.0304 0.21767 0.11843 0.64426 0.19558 0.9474 0.0771 0.30316 0.22684 0.76312 0.33234 1.0216 0.10551 0.25854 0.27772 0.62967 0.38239 0.82485 0.10508 0.19474 0.28565 0.49497 0.40115 0.6672 0.11551 0.1718 0.31401 0.4441 0.44036 0.60465 0.12677 0.16054 0.40032 0.46161 0.60799 0.66886 0.20724 0.20767 0.50832 0.48122 0.66886 0.60799 0.16055 0.12635 0.43285 0.32485 0.60465 0.44036 0.17223 0.1155 0.47204 0.29607 0.6672 0.40115 0.19516 0.10467 0.56087 0.2748 0.81315 0.3778 0.25229 0.10258 0.67471 0.24436 0.93825 0.314 0.26354 0.07 0.6672 0.1593 0.89655 0.19849 0.29107 0.0496 0.66303 0.0717 1.2302 0.073 0.57463 0.002 0.9495-0.0196 1.2781-0.0709 0.25603-0.0401 0.69847-0.13636 0.98325-0.21475 0.28481-0.078 0.75105-0.24228 1.0363-0.36488 0.28481-0.12259 0.70097-0.33109 0.92445-0.46329 0.22393-0.13218 0.59923-0.38488 0.834-0.56169 0.23519-0.17681 0.61799-0.51291 0.85065-0.74685 0.23269-0.23394 0.57254-0.62383 0.75518-0.86692 0.18222-0.24311 0.44535-0.64301 0.58421-0.8886 0.13886-0.24562 0.32776-0.62509 0.41992-0.84278 0.0926-0.21767 0.2331-0.61216 0.31275-0.8757 0.0792-0.26396 0.18264-0.70515 0.22935-0.9804 0.0467-0.27563 0.098-0.73516 0.11384-1.0216 0.0171-0.31567 0.009-0.72641-0.0204-1.042-0.0271-0.2869-0.0947-0.74351-0.15012-1.0154-0.0555-0.27147-0.17848-0.72183-0.27314-1.0008-0.0951-0.27856-0.27105-0.7039-0.39156-0.94493-0.12093-0.2406-0.29982-0.5692-0.39782-0.72975-0.098-0.16012-0.2773-0.42325-0.39865-0.58463-0.12093-0.16096-0.34986-0.43785-0.5079-0.61507-0.15846-0.17723-0.42534-0.44619-0.59298-0.59715-0.16805-0.15137-0.43869-0.37321-0.60173-0.49331-0.16305-0.1201-0.40908-0.28981-0.54669-0.3778-0.13761-0.0876-0.47204-0.27063-0.74309-0.40616-0.27105-0.13594-0.74101-0.32901-1.0442-0.42868-0.30357-0.0997-0.75728-0.21976-1.0083-0.26688-0.25145-0.0471-0.65136-0.10466-0.88905-0.12802-0.23727-0.0233-0.59381-0.04-0.7923-0.0367zm20.99 0c-0.18348 0.003-0.49289 0.0208-0.68805 0.0392-0.19474 0.0188-0.51583 0.0638-0.71307 0.0996-0.19766 0.0363-0.49789 0.10384-0.6672 0.15012-0.16972 0.0467-0.46787 0.1422-0.66303 0.21226-0.19474 0.0701-0.56086 0.22643-0.81315 0.34778-0.25228 0.12093-0.65552 0.35028-0.89655 0.50916-0.24061 0.15887-0.60924 0.43284-0.819 0.6084-0.20934 0.17597-0.51708 0.46537-0.68347 0.64384-0.16638 0.17807-0.41366 0.46955-0.54961 0.64803-0.13593 0.17847-0.33777 0.47078-0.44868 0.64926-0.11093 0.17889-0.28524 0.49248-0.38781 0.69723-0.103 0.20475-0.25688 0.56003-0.3432 0.78937-0.0859 0.22935-0.20808 0.62342-0.2723 0.8757-0.0638 0.25229-0.14595 0.69013-0.18223 0.97327-0.0367 0.28315-0.0667 0.75225-0.0663 1.0425 0 0.29024 0.0196 0.69681 0.043 0.90323 0.0238 0.20641 0.0813 0.56295 0.1276 0.7923 0.0467 0.22935 0.16055 0.64885 0.25271 0.9324 0.0922 0.28314 0.28981 0.75975 0.43951 1.0583 0.14929 0.299 0.39407 0.72392 0.54336 0.94448 0.14886 0.22018 0.4024 0.55545 0.56253 0.74434 0.16013 0.18891 0.44285 0.48623 0.628 0.66095 0.18557 0.17431 0.48455 0.4291 0.66428 0.56587 0.18015 0.13719 0.48164 0.34486 0.67012 0.46246 0.18848 0.11717 0.55294 0.31274 0.8094 0.43534 0.25688 0.12218 0.66596 0.28898 0.9099 0.3703 0.24353 0.0817 0.66219 0.19307 0.92993 0.24811 0.26812 0.055 0.68179 0.11927 0.9195 0.14345 0.23727 0.0238 0.58713 0.0433 0.7773 0.0433 0.19015 0 0.54001-0.0188 0.7773-0.0421 0.23769-0.0229 0.62925-0.0805 0.86985-0.12801 0.24102-0.0471 0.68679-0.16847 0.99165-0.26938 0.30441-0.10092 0.78105-0.29732 1.0596-0.43661 0.27814-0.13927 0.67429-0.36612 0.88027-0.50373 0.20558-0.13761 0.50791-0.35987 0.67095-0.49373 0.16305-0.13344 0.48456-0.43743 0.71474-0.67554 0.23019-0.23769 0.50374-0.54502 0.60799-0.68263s0.26771-0.36654 0.36362-0.50874c0.0955-0.14178 0.27689-0.45286 0.40282-0.69055 0.12552-0.23769 0.31317-0.6551 0.41659-0.92783 0.10342-0.27271 0.23518-0.68429 0.2919-0.91492 0.0571-0.2306 0.13344-0.61591 0.1693-0.85695 0.0392-0.26396 0.065-0.71933 0.065-1.1468 0-0.41658-0.0263-0.89573-0.0642-1.1622-0.0355-0.24937-0.11009-0.63426-0.16639-0.85485-0.0559-0.22101-0.16054-0.57046-0.23268-0.77685-0.0725-0.20642-0.22059-0.56295-0.32943-0.7923s-0.2944-0.57296-0.41283-0.76313c-0.11843-0.19056-0.32318-0.49039-0.45537-0.66636-0.1326-0.1764-0.42742-0.515-0.65635-0.75225-0.22852-0.23769-0.5567-0.54627-0.72975-0.68556-0.17264-0.13969-0.49498-0.37237-0.71641-0.51791-0.22101-0.14512-0.63384-0.37613-0.9174-0.51291-0.28314-0.13678-0.74017-0.32192-1.0154-0.41158-0.27522-0.0896-0.70682-0.20307-0.9591-0.25145-0.25229-0.0487-0.66512-0.10717-0.9174-0.1301-0.25229-0.023-0.60882-0.0392-0.7923-0.0359zm21.309 0.0175c-0.34403-0.01-0.7848-0.002-0.97995 0.0188-0.19474 0.02-0.47621 0.058-0.6255 0.0842-0.14887 0.0263-0.48289 0.103-0.74184 0.17014-0.25896 0.0676-0.65845 0.19723-0.88778 0.28856-0.22976 0.0917-0.55169 0.23393-0.71556 0.3165-0.16431 0.083-0.44453 0.24103-0.62259 0.35153-0.17805 0.11051-0.47121 0.31275-0.65135 0.44994-0.17973 0.13678-0.48372 0.39615-0.67554 0.57588-0.19141 0.18015-0.48539 0.49165-0.65302 0.69264-0.16722 0.20058-0.39573 0.50082-0.50749 0.66721-0.11218 0.16595-0.2894 0.45368-0.39407 0.63884-0.10508 0.18556-0.27689 0.53876-0.38238 0.78525-0.10509 0.24603-0.2477 0.63842-0.31692 0.87112-0.0692 0.23269-0.16472 0.63009-0.21184 0.8832-0.0572 0.30441-0.0938 0.7139-0.10842 1.2143-0.0137 0.45953-0.003 0.91575 0.0263 1.1676 0.0267 0.22684 0.0863 0.59922 0.1326 0.82732 0.0467 0.22811 0.15721 0.63218 0.24603 0.8982 0.0892 0.26605 0.24436 0.66136 0.34486 0.87818 0.10092 0.21684 0.28982 0.5692 0.41992 0.7827 0.1301 0.21391 0.35362 0.5421 0.49623 0.72975 0.14261 0.18806 0.40991 0.49915 0.59423 0.6918 0.18389 0.19307 0.50331 0.49206 0.70973 0.66428 0.20641 0.17263 0.54418 0.42534 0.7506 0.56087 0.20641 0.13593 0.61924 0.36696 0.9174 0.51332 0.29815 0.14679 0.76725 0.33985 1.0425 0.42951 0.27522 0.0897 0.69764 0.20183 0.93825 0.24936 0.24103 0.0476 0.63217 0.10593 0.86985 0.12927 0.23727 0.0238 0.58713 0.043 0.7773 0.043 0.19015 0 0.54001-0.0192 0.7773-0.043 0.23769-0.0233 0.62926-0.0817 0.86985-0.12927 0.24103-0.0476 0.66303-0.16012 0.93825-0.25019 0.27522-0.0901 0.73225-0.27564 1.0154-0.41242 0.28356-0.13677 0.69639-0.36779 0.9174-0.5129 0.22143-0.14554 0.54336-0.37781 0.71516-0.51709 0.17222-0.13886 0.49164-0.43743 0.71056-0.66386 0.21852-0.22602 0.51417-0.56462 0.65637-0.7527 0.14261-0.18765 0.3657-0.51583 0.49581-0.72975 0.1301-0.21351 0.319-0.56587 0.41991-0.7827 0.1005-0.21684 0.25521-0.6109 0.3432-0.8757 0.088-0.26479 0.19807-0.65969 0.24477-0.87735 0.0463-0.21767 0.10676-0.59214 0.13428-0.83152 0.0308-0.26897 0.0412-0.7235 0.0275-1.1884-0.0146-0.49874-0.0513-0.90863-0.10842-1.2126-0.0471-0.25312-0.14261-0.65011-0.21142-0.88238-0.0692-0.23226-0.21684-0.63718-0.32818-0.89985-0.11092-0.26271-0.32025-0.67554-0.46454-0.91785-0.14428-0.24228-0.38447-0.60298-0.53376-0.8019-0.14928-0.19891-0.43117-0.53001-0.62674-0.73517-0.19516-0.20516-0.49749-0.49164-0.67179-0.63593-0.17431-0.14427-0.46746-0.36737-0.65136-0.49539-0.18431-0.12802-0.55086-0.34653-0.81442-0.48497-0.26396-0.13886-0.67929-0.32693-0.9228-0.41867-0.24353-0.0913-0.63342-0.21433-0.86693-0.27355-0.2331-0.0593-0.60548-0.13511-0.82777-0.16888-0.22184-0.0337-0.68513-0.0697-1.0292-0.0792zm-124.68 21.541c-0.16055 0.003-0.46996 0.0221-0.68805 0.043-0.21809 0.0205-0.62216 0.083-0.89865 0.13887-0.27647 0.0559-0.67971 0.16054-0.89655 0.2331-0.21684 0.0726-0.59297 0.21976-0.83565 0.32734-0.24269 0.10759-0.60882 0.29566-0.81315 0.41826-0.20433 0.12218-0.5471 0.35361-0.76185 0.51416-0.21434 0.16054-0.5567 0.45036-0.7602 0.64384-0.2035 0.19391-0.50874 0.52418-0.67888 0.73392-0.16972 0.21018-0.412 0.54127-0.53835 0.73643-0.12635 0.19473-0.3165 0.52291-0.42242 0.72933-0.10592 0.206-0.2673 0.56545-0.35862 0.79897-0.0913 0.2331-0.22226 0.64218-0.29065 0.90825-0.0688 0.26646-0.15346 0.70097-0.18807 0.96533-0.0346 0.26437-0.0625 0.7752-0.0621 1.135 0.00042 0.36028 0.0284 0.84817 0.0617 1.0842 0.0338 0.23644 0.10133 0.60256 0.15054 0.81315 0.0496 0.211 0.15345 0.56754 0.23143 0.7923 0.0784 0.22518 0.21476 0.5667 0.30399 0.75892 0.0888 0.19266 0.2648 0.525 0.39073 0.73809 0.12593 0.21351 0.34777 0.5471 0.49331 0.74226 0.14553 0.19474 0.45161 0.54836 0.68054 0.78563 0.22852 0.23728 0.5567 0.54544 0.72975 0.68472 0.17264 0.13927 0.48289 0.36487 0.68931 0.50081 0.20641 0.13636 0.59547 0.35821 0.86445 0.49331 0.26896 0.13511 0.73809 0.32901 1.0425 0.43077 0.30441 0.10133 0.7506 0.22309 0.9912 0.26979s0.62007 0.10425 0.84277 0.12802c0.22268 0.0233 0.58214 0.043 0.79815 0.043 0.21642 0 0.58797-0.0196 0.82523-0.0438 0.23768-0.0238 0.61966-0.0813 0.84899-0.12802 0.22935-0.0463 0.64593-0.15846 0.92535-0.24937 0.27981-0.0909 0.74894-0.28439 1.0425-0.42993 0.29399-0.14553 0.70307-0.37613 0.90946-0.51291 0.20641-0.13636 0.51666-0.36237 0.6893-0.50164 0.17305-0.13929 0.50123-0.44787 0.72975-0.68556 0.22893-0.23727 0.5225-0.5742 0.65343-0.74809 0.13053-0.17431 0.34486-0.49289 0.47622-0.70849 0.13135-0.21517 0.32109-0.5692 0.422-0.78607 0.1005-0.21684 0.25562-0.61215 0.34486-0.87818 0.0888-0.26605 0.19932-0.67012 0.24603-0.8982 0.0463-0.2281 0.10591-0.60048 0.1326-0.82732 0.03-0.25271 0.04-0.70599 0.0258-1.1676-0.0121-0.41534-0.053-0.92033-0.0905-1.1222-0.0375-0.20225-0.11425-0.54627-0.17097-0.76478-0.0571-0.2185-0.16888-0.56629-0.24853-0.7731-0.0797-0.20683-0.24103-0.56629-0.3582-0.79897-0.11718-0.23269-0.32943-0.60174-0.47204-0.81938-0.1422-0.21809-0.40199-0.56712-0.57755-0.77602-0.17556-0.20892-0.47329-0.52542-0.66177-0.70265-0.18849-0.17722-0.48456-0.43034-0.65803-0.56211-0.17389-0.13177-0.46746-0.33485-0.65303-0.45078-0.18556-0.11634-0.47121-0.27856-0.63426-0.3607-0.16305-0.0821-0.48038-0.22185-0.70515-0.31025-0.22435-0.0888-0.5863-0.21017-0.80437-0.27022-0.21768-0.0601-0.55545-0.13761-0.7506-0.17222-0.19474-0.035-0.56087-0.0826-0.81315-0.1055-0.25229-0.0233-0.59006-0.0401-0.7506-0.0367zm20.996 0.00042c-0.14887 0.003-0.43868 0.02-0.64385 0.0383-0.20475 0.0179-0.53793 0.0634-0.74059 0.1005-0.20267 0.0375-0.56462 0.12302-0.8052 0.19057-0.2402 0.0676-0.62008 0.19891-0.8436 0.2919-0.22393 0.093-0.58505 0.26396-0.80318 0.37989-0.21767 0.11592-0.54626 0.31484-0.72975 0.44243-0.18348 0.12719-0.4758 0.34945-0.64926 0.49332-0.17389 0.14386-0.4833 0.43701-0.68805 0.65135s-0.48039 0.53335-0.61299 0.70932c-0.13219 0.17555-0.33735 0.47538-0.45537 0.66595-0.11842 0.19015-0.30399 0.53376-0.41199 0.76312-0.108 0.22935-0.25646 0.58589-0.32901 0.7923-0.073 0.20642-0.17806 0.55586-0.23394 0.77685-0.0563 0.22059-0.13094 0.60548-0.16638 0.85485-0.038 0.26521-0.065 0.74768-0.065 1.1622-0.00042 0.44577 0.0246 0.87863 0.068 1.1663 0.0375 0.25145 0.12176 0.66428 0.18723 0.9174 0.0655 0.2527 0.1839 0.62967 0.26354 0.8373 0.0797 0.20767 0.23852 0.5642 0.3532 0.7923 0.11467 0.2281 0.31983 0.5838 0.45619 0.7902 0.13636 0.20641 0.36071 0.51582 0.49832 0.68805 0.13803 0.1718 0.39948 0.46036 0.58046 0.64092 0.18139 0.18057 0.46495 0.43953 0.63009 0.57505 0.16555 0.13553 0.48122 0.36612 0.70181 0.51249s0.61049 0.36947 0.86693 0.49581c0.25603 0.12635 0.68179 0.30358 0.94537 0.39407 0.26396 0.0905 0.64969 0.20433 0.85815 0.25312 0.20808 0.0484 0.62091 0.11676 0.91695 0.15137 0.29649 0.0346 0.71975 0.063 0.94118 0.063s0.59673-0.0196 0.834-0.0438c0.23769-0.0242 0.61966-0.0826 0.849-0.12927 0.22935-0.0471 0.64218-0.1593 0.9174-0.24937 0.27522-0.0901 0.731-0.2748 1.0129-0.41116 0.28148-0.13594 0.67554-0.35362 0.8757-0.48331 0.19974-0.12968 0.49457-0.34026 0.65511-0.46829 0.16055-0.12802 0.43076-0.36529 0.60006-0.52708 0.16931-0.1618 0.44953-0.46287 0.62258-0.66929 0.17306-0.20641 0.42576-0.54418 0.5617-0.7506 0.13553-0.20641 0.35696-0.59422 0.49164-0.86235 0.13427-0.26771 0.31775-0.69931 0.407-0.9591 0.0892-0.25937 0.20182-0.64093 0.24978-0.84735 0.048-0.20641 0.11634-0.59673 0.15137-0.86737 0.0354-0.27063 0.0642-0.71724 0.0642-0.99203 0-0.27481-0.02-0.68221-0.0442-0.90487-0.0242-0.22269-0.0809-0.58923-0.12635-0.81443-0.0455-0.2256-0.15721-0.63718-0.24812-0.91492-0.0913-0.27772-0.26062-0.70306-0.37655-0.9453-0.11551-0.24228-0.29732-0.58172-0.40324-0.75353-0.10633-0.17222-0.29315-0.44911-0.41533-0.61549-0.12219-0.16638-0.35571-0.45411-0.51875-0.63926-0.16305-0.18515-0.46787-0.48664-0.6772-0.67012-0.20892-0.18348-0.59673-0.47871-0.86153-0.65678-0.26479-0.17764-0.69639-0.42826-0.9591-0.55711-0.26271-0.12843-0.70264-0.31066-0.97747-0.40491-0.2748-0.0938-0.72516-0.21642-1.0008-0.27188-0.27564-0.055-0.72642-0.1201-1.0016-0.14386-0.27522-0.0233-0.62216-0.0404-0.77145-0.0375z"/>
 </g>

</svg>